<?xml version="1.0" encoding="utf-8"?>
<!-- Generator: Adobe Illustrator 25.4.1, SVG Export Plug-In . SVG Version: 6.00 Build 0)  -->
<svg version="1.1" id="Layer_1" xmlns="http://www.w3.org/2000/svg" xmlns:xlink="http://www.w3.org/1999/xlink" x="0px" y="0px"
	 viewBox="0 0 1189 853" style="enable-background:new 0 0 1189 853;" xml:space="preserve">
<style type="text/css">
	.st0{clip-path:url(#SVGID_00000018957071997938780550000003600123750829913494_);}
	.st1{fill:#194991;}
</style>
<g>
	<g>
		<g>
			<defs>
				<path id="SVGID_1_" d="M604.96,290.48l13.97,85.03h-29.88l-4.17-46.58h-0.23h-0.34c-0.56,2.82-1.12,5.75-2.03,8.46l-0.18,0.57
					l-12.11,37.55h-17.36l-12.11-37.55l-0.18-0.57c-0.9-2.71-1.47-5.64-2.03-8.46h-0.34h-0.23l-4.17,46.58h-29.89l13.98-85.03h22.54
					h8.93h0.1h0.01l0.88,3.39l10.84,41.27h0.67l10.84-41.27l0.88-3.39h0.01h0.11h8.92H604.96L604.96,290.48z M374.22,425.07h-2.14
					v-14.44h2.37c5.3,0,9.92,0.79,9.92,7.33C384.37,424.28,379.29,425.07,374.22,425.07L374.22,425.07z M403.33,444.81
					c-1.69-2.48-3.62-3.84-5.19-5.08v-0.68c11.51-3.84,16.46-9.24,16.46-22.1c0-21.42-16.24-29.54-35.41-29.54h-37.33v85.04h30.23
					v-27.3h0.56l13.53,27.3h35.63L403.33,444.81L403.33,444.81z M369.54,375.52h-29.77v-85.03h29.77v28.64h18.95v-28.64h29.78v85.03
					h-29.78v-29.55h-18.95V375.52L369.54,375.52z M656.15,355.22h-3.5v-14.1h3.05c4.96,0,12.86-0.11,12.86,6.99
					C668.56,355.11,661.23,355.22,656.15,355.22L656.15,355.22z M652.65,311.01h2.14c4.52,0,10.27-0.45,10.27,5.87
					c0,5.86-5.08,6.32-9.59,6.32h-2.82V311.01L652.65,311.01z M682.09,331.88v-0.68c7.43-2.37,11.16-9.7,11.16-17.14
					c0-19.62-16.8-23.57-33.27-23.57h-35.97v85.03h42.06c14.89,0,31.13-5.97,31.13-23.45C697.2,341.91,691.34,335.15,682.09,331.88
					L682.09,331.88z M472.22,290.48h30.9v50.3c0,24.81-15.56,36.08-39.36,36.08c-23.8,0-39.35-11.28-39.35-36.08v-50.3h30.9v47.37
					c0,6.65,0.22,12.52,8.45,12.52c8.24,0,8.46-5.87,8.46-12.52V290.48L472.22,290.48z M858.12,344.73l5.64-25.94h1.13l5.64,25.94
					H858.12L858.12,344.73z M881.13,290.48h-34.17l-29.55,85.03h32.71l2.48-10.6h23.34l2.82,10.6h32.7L881.13,290.48L881.13,290.48z
					 M734.52,328.15h-2.14v-14.44h2.36c5.3,0,9.93,0.79,9.93,7.33C744.68,327.36,739.6,328.15,734.52,328.15L734.52,328.15z
					 M763.62,347.89c-1.69-2.48-3.6-3.84-5.19-5.07v-0.67c11.51-3.84,16.47-9.25,16.47-22.11c0-21.42-16.24-29.55-35.42-29.55
					h-37.32v85.03h30.22v-27.29h0.56l13.53,27.29h35.64L763.62,347.89L763.62,347.89z M784.93,290.48h30.9v85.03h-30.9V290.48
					L784.93,290.48z M968.07,290.48h29.55v85.03h-29.55l-26.16-42.99v15.36v22.45v5.18h-29.55v-85.03h29.66l26.05,44.26v-18.77
					v-13.91V290.48L968.07,290.48z M145.88,387.41l-30,85.05H88.92l-9.42-44.93c-0.85,3.32-1.71,6.74-2.5,9.8
					c-0.11,0.57-0.23,1.15-0.37,1.72l-8.57,33.4H41.79L12.01,387.4h32.03l10.4,49.26l3.06-12.07c0.16-0.71,0.33-1.42,0.52-2.12
					l1.32-5.13l3.55-13.98l-0.01,0.22l4.16-16.18h23.68L102,436.66l2.78-11.63c0.13-0.63,0.24-1.26,0.39-1.88l8.57-35.75H145.88
					L145.88,387.41z M228.19,328.15h-2.13v-14.44h2.36c5.3,0,9.93,0.8,9.93,7.33C238.34,327.36,233.27,328.15,228.19,328.15
					L228.19,328.15z M257.29,347.89c-1.7-2.48-3.61-3.84-5.18-5.07v-0.67c11.5-3.84,16.46-9.25,16.46-22.11
					c0-21.42-16.24-29.55-35.41-29.55h-37.33v85.03h30.23v-27.29h0.56l13.53,27.29h35.64L257.29,347.89L257.29,347.89z
					 M145.2,350.03c-9.36,0-15.9-6.65-15.9-16.35c0-9.02,6.09-16.57,15.9-16.57c9.81,0,15.9,7.55,15.9,16.57
					C161.1,343.38,154.55,350.03,145.2,350.03L145.2,350.03z M145.2,289.13c-25.82,0-47.03,17.37-47.03,44.1
					c0,27.29,21.09,43.64,47.03,43.64c25.94,0,47.02-16.35,47.02-43.64C192.22,306.5,171.02,289.13,145.2,289.13L145.2,289.13z
					 M21.08,375.52H9.76v-85.03h29.66l26.04,44.26v-18.78v-13.61v-11.88h29.56v85.03H65.46L39.3,332.52v15.36v27.63H21.08
					L21.08,375.52z M270.25,290.48h64.96v26.92H318.1v58.11h-30.81V317.4h-17.03V290.48L270.25,290.48z M307.51,449.21h26.96v23.25
					h-58.08v-85.05h57.18v23.23h-26.05v8.12h23.8v22.1h-23.8V449.21L307.51,449.21z M206.9,387.41h64.95v26.92h-17.11v58.13h-30.82
					v-58.13H206.9V387.41L206.9,387.41z M167.07,441.65l5.64-25.94h1.13l5.64,25.94H167.07L167.07,441.65z M190.08,387.41H155.9
					l-29.54,85.04h32.7l2.48-10.6h23.34l2.82,10.6h32.71L190.08,387.41L190.08,387.41z"/>
			</defs>
			<use xlink:href="#SVGID_1_"  style="overflow:visible;fill:#194991;"/>
			<clipPath id="SVGID_00000121246964212642544690000005029503740221088922_">
				<use xlink:href="#SVGID_1_"  style="overflow:visible;"/>
			</clipPath>
			<g style="clip-path:url(#SVGID_00000121246964212642544690000005029503740221088922_);">
				<defs>
					<rect id="SVGID_00000157273738573732082870000005939346207785233027_" x="9.96" y="289" width="987.79" height="183.78"/>
				</defs>
				<use xlink:href="#SVGID_00000157273738573732082870000005939346207785233027_"  style="overflow:visible;fill:#194991;"/>
				<clipPath id="SVGID_00000136412232197596612420000002521908138092306572_">
					<use xlink:href="#SVGID_00000157273738573732082870000005939346207785233027_"  style="overflow:visible;"/>
				</clipPath>
			</g>
		</g>
	</g>
	<path class="st1" d="M767.57,434.32c-3.22-2.26-6.91-2.89-10.92-2.27v0.23c4.52-0.34,7.67,1.33,10.21,3.31c0,0,0.19-0.35,0.36-0.65
		C767.38,434.62,767.57,434.32,767.57,434.32L767.57,434.32z M766.45,436.4c-3.79-3.11-9.06-3.56-13.86-2.49v0.23
		c4.52-0.85,9.46,0.35,13.25,3.57c0,0,0.16-0.38,0.31-0.67C766.29,436.73,766.45,436.4,766.45,436.4L766.45,436.4z M766.16,484.76
		c-0.42,0.83-0.96,1.79-1.56,2.57c-0.11,5.48,0.04,20.32-2,32.19h0.22C765.37,508.38,766.05,490.07,766.16,484.76L766.16,484.76z
		 M758.04,528.49c4.24-11.19,5.48-31.48,5.76-40.07c0,0-0.5,0.68-0.78,1.03c-0.27,0.35-0.81,1.02-0.81,1.02
		c-0.28,7.91-0.79,26.72-4.4,38.02H758.04L758.04,528.49z M761.42,491.4c0,0-0.45,0.48-0.82,0.89c-0.38,0.4-0.81,0.88-0.81,0.88
		c-0.22,9.38-1.08,32.48-9.78,46.67h0.22C759.5,526.21,761.14,501.29,761.42,491.4L761.42,491.4z M748.6,536.89
		c7.69-12.44,9.78-33.51,10.29-42.84c0,0-0.39,0.38-0.83,0.77c-0.43,0.4-0.77,0.69-0.77,0.69c-0.51,8.54-1.8,28.37-8.92,41.37H748.6
		L748.6,536.89z M759.73,458.51c0.91-4.75,2.04-9.28,4.07-15.39c-2.49-2.94-6.1-4.29-9.49-4.29c-4.75,0-8.59,1.13-12.21,4.29
		c-6.33,5.43-10.63,16.29-11.53,25.34c-1.13,10.85,0.68,18.54,8.37,18.54c3.84,0,9.27-2.94,13.56-9.5
		C756.34,471.62,758.37,465.74,759.73,458.51L759.73,458.51z M746.85,438.81c6.39-1.98,12.96-1.43,17.26,3.32l0.51-1.41
		c-4.86-4.24-11.84-4.39-17.77-2.12V438.81L746.85,438.81z M749.41,436.43c6.39-1.47,11.11-0.61,15.52,3.46
		c0.17-0.45,0.31-0.82,0.54-1.33c-4.64-3.73-9.61-4.05-16.06-2.36V436.43L749.41,436.43z M715.61,490.24c0,0-0.53-1.37-0.7-1.93
		c-2.15,4.46-7.51,13.88-17.85,14.72v0.32C707.85,503,713.46,494.59,715.61,490.24L715.61,490.24z M697.25,488.91
		c-0.79-7.35-1.52-13.68-1.69-18.54h-0.32c-0.28,5.82-0.28,11.47,0.34,18.54C696.15,488.97,696.62,488.97,697.25,488.91
		L697.25,488.91z M694.73,488.82c-0.62-5.82-1.29-10.79-1.46-15.03h-0.31c-0.23,4.86-0.28,9.5,0.12,14.58
		C693.4,488.49,694.22,488.75,694.73,488.82L694.73,488.82z M698.16,488.82c0.61-0.07,1.21-0.26,1.66-0.43
		c-1.75-11.42-1.97-20.48-1.97-26.87h-0.32C696.92,470.05,697.08,478.48,698.16,488.82L698.16,488.82z M700.71,488.02
		c0.63-0.24,1.17-0.57,1.61-0.93c-1.7-11.65-1.93-24.76-1.93-31.15h-0.31C699.4,466.46,699.29,476.94,700.71,488.02L700.71,488.02z
		 M701.45,499.01v0.32c6.16-1.7,10.56-7.36,13.16-12l-0.62-2.44C711.5,489.63,707.44,496.8,701.45,499.01L701.45,499.01z
		 M705.47,493.72c3.96-2.83,6.56-6.54,8.31-9.88c0,0-0.27-1.4-0.42-2.65c-1.58,3.62-3.88,8.71-7.89,12.21V493.72L705.47,493.72z
		 M654.37,443.46h-0.11c-2.62,6.38-8.34,18.26-13.54,27.53h0.32c3.9-6.22,7.01-11.76,9.55-16.73c1.02-2.04,2.52-4.85,3.42-6.49
		C654.24,447.01,654.5,445.32,654.37,443.46L654.37,443.46z M653.48,451h-0.17c-1.36,3.11-10.25,21.36-15.11,30.12h0.32
		c6.33-10.4,8.78-15.68,11.72-21.33l0.79-1.58C651.87,456.42,653.14,452.81,653.48,451L653.48,451z M643.82,461.1h0.32
		c4.86-8.09,8.73-16.62,10.09-20.01c0.07-1.12-0.33-1.78-0.7-2.24C652.58,442.24,648.46,452.28,643.82,461.1L643.82,461.1z
		 M610.97,435.85c-3.17,3.78-7.63,8.09-12.38,9.44v0.32c4.01-0.91,9-4.1,11.49-6.82L610.97,435.85L610.97,435.85z M609.69,440.07
		c-3.73,3.9-9.26,8.57-15.59,8.91v0.32c6.16-0.17,11.12-3.19,14.74-6.48L609.69,440.07L609.69,440.07z M608.46,444.07
		c-4.07,3.79-10.38,8.47-17.61,8.3v0.32c6.22,0.34,12.48-2.5,16.78-5.96L608.46,444.07L608.46,444.07z M607.26,447.87
		c-4.01,3.45-9.83,7.3-16.27,7.58v0.32c6.1-0.11,11.49-2.32,15.39-5.15L607.26,447.87L607.26,447.87z M581.16,452.29
		c-0.36-0.44-0.93-1.19-1.24-1.64c-2.66,7.18-10.4,28.56-18.93,43.54h0.32C567.91,484.36,577.26,462.3,581.16,452.29L581.16,452.29z
		 M561.92,485.43h0.31c6.05-9.32,12.91-24.88,17.14-35.57c0,0-0.31-0.47-0.48-0.74c-0.17-0.27-0.59-0.94-0.59-0.94
		C574.57,457.79,568.47,473.67,561.92,485.43L561.92,485.43z M565.86,471.53h0.32c3.9-6.5,8.32-16.1,11.66-24.13
		c0,0-0.67-1.16-0.95-1.71C572.76,455.59,569.37,464.97,565.86,471.53L565.86,471.53z M566.92,464.34h0.32
		c3.55-6.22,6.55-12.98,9.15-19.6c0,0-0.31-0.6-0.45-0.9c-0.15-0.3-0.51-1.04-0.51-1.04C571.63,452.98,570.3,457.1,566.92,464.34
		L566.92,464.34z M530.64,460.25c0-0.62,0-2.3,0-2.3c-3.22,6.84-7.04,15.5-11.84,22.51h0.32c4.24-5.6,8.22-12.02,11.5-18.46
		C530.61,462,530.64,460.86,530.64,460.25L530.64,460.25z M530.57,463.82c-4.47,8.53-9.64,18.42-16,26.44h0.32
		c5.7-6.38,11.1-14.3,15.62-22.55C530.51,466.63,530.55,465.07,530.57,463.82L530.57,463.82z M530.52,473.17
		c0,0-0.02-0.73-0.02-1.43c0-1.01,0-2.27,0-2.27c-4.58,8.93-10.46,20.23-17.52,28.42h0.32
		C519.32,491.84,525.71,482.38,530.52,473.17L530.52,473.17z M521.35,471.99h0.31c3.33-5.07,6.34-10.31,8.93-16.11c0,0,0,0,0,0
		l0.02-0.05c-0.01,0.02-0.01,0.03-0.02,0.05c0-0.43,0-1.07-0.01-1.75c-0.02-0.93-0.05-1.91-0.05-2.49
		C527.87,458.02,525.02,465.32,521.35,471.99L521.35,471.99z M479.4,477.84c-2.48,4.19-5.87,9.17-10.59,13.92l0,0.32
		c4.75-4.07,7.84-7.83,9.99-10.66c0.06-0.42,0.14-0.94,0.23-1.48C479.16,479.2,479.3,478.43,479.4,477.84L479.4,477.84z
		 M478.57,483.16c-3.39,4.92-9.5,12.57-16.95,17.96v0.32c6.89-4.06,13.34-11.01,16.62-14.97
		C478.3,485.67,478.46,483.95,478.57,483.16L478.57,483.16z M478.15,487.97c-2.88,3.67-10.12,13.84-21.15,19.44v0.32
		c9.95-4.41,18.45-13.67,21.11-16.94C478.1,490.78,478.08,489.27,478.15,487.97L478.15,487.97z M780.98,437.92
		c0,1.36-0.45,3.17-1.13,4.98c-3.62,9.73-5.2,21.49-5.65,35.28c-0.23,8.14-0.68,18.54-1.36,26.45
		c-2.04,24.87-13.79,59.24-44.54,59.24c-20.8,0-32.78-16.51-32.78-35.27c0-7.01,2.26-11.98,9.5-11.98c0.9,0,3.84,0.68,4.07,2.03
		c1.58,15.37,8.14,28.94,20.57,28.94c21.87,0,25.94-38.21,26.74-51.15c-6.84,5.65-13.8,7.46-18.88,7.52h-0.39
		c-10.63,0-17.64-4.75-21.03-12.43c-2.26,4.75-8.37,13.34-18.99,13.34c-8.82,0-13.34-7.23-13.34-22.16c0-6.56,0.68-13.11,0.68-25.1
		c0-4.98-0.45-11.54-2.71-13.12c-2.48,1.81-9.27,9.28-33.01,57.67c-1.58,3.16-3.85,4.75-7.23,4.75c-5.21-0.23-9.05-2.49-9.05-7.69
		c0-1.13,0.45-3.17,1.13-4.97h-0.23c-4.52,6.56-11.75,13.79-21.02,13.79c-6.33,0-14.24-4.29-14.24-18.99
		c0-10.63,4.3-26.45,7.91-36.86c-2.71,2.49-9.72,5.2-14.69,5.2c-2.94,0-6.33-0.68-9.27-4.07c-13.79,34.14-22.16,55.85-37.08,55.85
		s-14.24-33.01-14.24-33.91c-6.1,12.89-19.9,35.27-36.17,35.27c-9.95,0-14.92-6.1-16.28-17.86c-10.85,11.76-19.67,18.76-29.84,18.76
		c-9.04,0-15.83-7.68-15.83-26.22c0-26.23,11.08-62.42,26-85.02c5.88-9.04,8.82-9.95,11.98-9.95c5.2,0,6.55,3.39,6.55,4.97
		c0,2.26-1.58,5.2-3.62,9.04c-11.3,21.71-22.61,52.46-22.61,80.72c0,5.2,0.22,6.78,0.45,7.92c13.34-5.43,22.16-18.54,29.62-31.88
		c3.39-6.11,5.65-11.08,7.24-15.16c2.26-5.88,4.52-8.82,8.14-8.82c2.49,0,7.24,1.59,7.24,6.78c0,2.26-1.13,7.01-2.26,11.09
		c-5.65,20.35-5.88,25.1-5.88,30.3c0,3.62,0.68,6.33,1.36,7.01c16.5-8.82,29.84-48.85,30.75-52.47c1.81-6.56,2.94-10.85,9.72-10.85
		c4.52,0,7.01,2.49,8.59,9.95c2.49,10.86,1.36,27.82,4.3,46.59c8.14-16.28,16.28-37.77,21.71-52.92c2.26-6.1,4.97-7.46,8.36-7.46
		c3.17,0,4.98,1.81,7.24,5.65c4.07,7.01,6.33,10.17,8.14,10.4c6.33-2.26,11.3-6.56,14.47-9.95c3.39-3.62,5.42-5.43,8.37-5.43
		c3.16,0,7.46,2.04,7.46,7.46c0,4.98-2.26,10.85-3.62,16.51c-5.2,20.58-6.1,27.36-6.1,33.47c0,3.62,0.45,6.56,1.36,7.46
		c2.71-1.36,6.78-4.3,10.85-10.4c9.27-14.02,20.13-37.54,22.38-42.74c2.04-4.75,4.3-7.46,8.59-7.46c4.52,0,7.46,2.49,7.46,7.46
		c0,2.26-0.22,4.3-0.9,6.56h0.22c6.33-11.3,11.3-15.15,19.44-15.15c14.02,0,16.51,14.24,16.51,32.12v5.65c0,7.69,0.9,16.5,1.36,19.9
		c6.1-5.2,7.24-12.66,8.82-18.99c3.17-12.21,7.69-22.85,14.93-30.99c8.81-9.95,18.09-12.89,26-12.89c7.23,0,13.34,1.36,18.77,7.01
		C776.69,431.13,780.98,433.17,780.98,437.92L780.98,437.92z M1150.34,430.58H1150c-8.65,5.71-14.77,13.19-18.56,19.41l-2.07,7.34
		C1133.05,449.35,1139.49,438.94,1150.34,430.58L1150.34,430.58z M1132.2,447.34c3.05-4.7,7.01-10.52,13.17-15.55h-0.28
		c-4.8,3.67-8.66,7.35-11.66,11.3L1132.2,447.34L1132.2,447.34z M1133.83,441.57c1.61-2.37,3.5-5.07,7.67-8.79h-0.23
		c-2.54,1.7-4.53,3.13-6.5,5.51L1133.83,441.57L1133.83,441.57z M1111.65,459.46c-2.31,3.39-5.48,7.49-8.48,10.48v0.31
		c2.71-2.26,5.36-4.65,7.67-7.48L1111.65,459.46L1111.65,459.46z M1110.43,464.38c-3,3.79-7.4,9.18-12.27,12.97v0.31
		c5.6-3.84,9.29-7.44,11.55-10.15L1110.43,464.38L1110.43,464.38z M1109.29,469.24l-0.06,0.05c-3.39,3.85-10.29,11.61-16.39,15v0.31
		c6.61-3.28,12.59-8.88,15.76-12.27L1109.29,469.24L1109.29,469.24z M1108.3,473.75c-2.71,2.99-11.02,12.15-19.34,16.28v0.31
		c8.37-3.9,15.91-10.89,18.68-13.71C1107.81,475.77,1108.07,474.59,1108.3,473.75L1108.3,473.75z M1069.84,494.79
		c-7.01-0.12-11.94-3.01-15.62-6.01c0,0-1.27,0.76-1.94,1.17c3.5,2.82,9.07,5.15,17.55,5.15V494.79L1069.84,494.79z M1055.33,488.12
		c3.28,2.66,7.56,3.93,12.93,4.32v-0.31c-4.07-0.51-8.12-2.56-11.4-4.99L1055.33,488.12L1055.33,488.12z M1059.27,485.52l-1.41,0.95
		c2.26,1.7,4.69,2.44,7.57,3.06v-0.32C1063.51,488.54,1060.98,487.14,1059.27,485.52L1059.27,485.52z M1056.92,455.33
		c0,3.68,0.45,7.58,1.7,11.14c10.91-9.16,20.24-21.66,20.24-31.95c0-2.26-1.13-5.65-4.97-6.33
		C1066.19,429.33,1056.92,441.76,1056.92,455.33L1056.92,455.33z M1049.8,472.83c-0.96-2.6-1.97-5-2.48-9.41h-0.32
		c0,3.5,0.22,6.13,1.41,10.26L1049.8,472.83L1049.8,472.83z M1047.76,474.08c-1.41-3.96-3.12-8.9-3.12-17.32h-0.31
		c-0.17,1.58-0.14,3-0.14,4.58c0,4.69,0.63,8.97,1.99,13.66C1046.17,475,1047.26,474.38,1047.76,474.08L1047.76,474.08z
		 M1045.43,475.39c-2.71-9.1-3.44-18.46-1.91-28.02h-0.32c-2.1,9.45-2,19.42,0.66,28.85l1.02-0.54L1045.43,475.39L1045.43,475.39z
		 M1014.1,459.18c-0.23-20.25,7.54-44.95,7.65-45.17c-0.64,0.04-1.37,0.08-1.95,0.11c-3.85,14.52-6.75,29.74-6.01,45.06H1014.1
		L1014.1,459.18z M1011.93,448.28c1.75-17.24,5.28-28.68,6.98-34.11l-1.74,0.09c-1.53,5.54-4.53,18.19-5.55,34.02H1011.93
		L1011.93,448.28z M1011.38,432.93h0.32c1.64-9.22,3.52-15.13,4.54-18.64c-0.52,0.02-1.01,0.05-1.51,0.07
		C1013.76,417.81,1012.56,423.21,1011.38,432.93L1011.38,432.93z M1019.3,399.34l1.17-0.09l1.17-3.88h-0.31
		C1020.49,396.79,1019.86,398.04,1019.3,399.34L1019.3,399.34z M1024.51,392.07c-1.36,2.43-2.43,4.97-3.28,7.12l1.48-0.12
		c0.57-1.98,1.1-4,2.11-7H1024.51L1024.51,392.07z M1023.58,399.02l1.76-0.14l2.88-11.33h-0.32
		C1026.26,391.27,1024.77,395.57,1023.58,399.02L1023.58,399.02z M998.93,454.4c-1.86,4.24-5.04,11.62-7.7,15.97v0.32
		c3.17-4.46,5.57-8.9,7.21-12.29C998.5,457.27,998.72,456.02,998.93,454.4L998.93,454.4z M998.77,472.73
		c-0.12-0.79-0.26-1.95-0.32-2.8c-2.32,4.98-8.3,15.22-14.63,21.04v0.32C990.89,485.76,996.17,477.48,998.77,472.73L998.77,472.73z
		 M986.7,484.45c4.86-4.92,8.08-10.01,11.64-15.89c-0.05-0.85-0.11-2.09-0.11-2.93c-2.54,4.86-7.23,13.25-11.53,18.5V484.45
		L986.7,484.45z M989.56,477.12c3.27-4.01,6.5-9.09,8.64-13.1c0,0,0.01-1.06,0.03-1.87c0.03-0.81,0.09-1.92,0.09-1.92
		c-2.14,4.82-4.8,10.46-8.76,16.57V477.12L989.56,477.12z M951.24,488.4c-0.21-0.54-0.45-1.26-0.63-1.83
		c-3.56,5.32-9.98,13.14-21.57,12.75v0.32C942.04,500.03,948.3,493.09,951.24,488.4L951.24,488.4z M931.38,496.48
		c9.38-0.34,15.57-6.35,18.91-11.04c0,0-0.12-0.42-0.24-0.88c-0.12-0.46-0.24-1.14-0.24-1.14c-3.34,4.97-9.5,12.29-18.43,12.74
		V496.48L931.38,496.48z M936.08,492.06c5.82-1.41,10.43-5.58,13.54-9.71c0,0-0.07-0.37-0.16-1.08c-0.09-0.71-0.12-1.12-0.12-1.12
		c-2.88,4.58-7.38,9.83-13.25,11.59V492.06L936.08,492.06z M921.17,453.11c2.1-4.98,5.67-9.31,8.32-12.2l-2.15,0.27
		c-2.26,2.6-4.4,6.32-6.49,11.93H921.17L921.17,453.11z M915.44,458.7c2.6-7.81,7.74-13.75,11.01-17.43c0,0-0.62,0.06-0.98,0.1
		c-0.37,0.04-1.22,0.1-1.22,0.1c-3.05,3.56-6.53,9.03-9.13,17.23H915.44L915.44,458.7z M923.32,441.54l-1.29,0.07
		c0,0-0.76,0.04-1.03,0.04c-3.11,3.62-7.01,9.9-9.55,18.39h0.31C914.2,452.18,919.93,445.33,923.32,441.54L923.32,441.54z
		 M930.71,440.74c-1.47,1.7-2.7,3.84-4.19,7.17h0.31c1.75-3.28,3.91-5.47,5.83-7.5C932.1,440.53,931.6,440.62,930.71,440.74
		L930.71,440.74z M902.71,439.91c0,0-0.39-0.11-0.65-0.2c-0.26-0.08-0.71-0.24-0.71-0.24c-1.36,7.69-5.61,29.32-13.24,46.34h0.31
		C895.88,472.13,900.9,449.81,902.71,439.91L902.71,439.91z M888.57,477.26h0.32c5.76-11.58,9.71-27.51,11.75-38.03
		c0,0-0.43-0.16-0.73-0.28c-0.3-0.12-0.74-0.3-0.74-0.3C897.48,448.21,894.4,463.58,888.57,477.26L888.57,477.26z M891.1,462.78
		h0.32c2.55-6.78,5.28-16.1,7.09-24.41c0,0-0.33-0.15-0.58-0.26c-0.25-0.12-0.74-0.36-0.74-0.36
		C895.49,445.83,893.42,455.42,891.1,462.78L891.1,462.78z M893.23,447.14h0.32c1.36-3.37,1.8-5.5,2.99-9.73l-1.19-0.67
		C894.48,441.64,894.24,443.11,893.23,447.14L893.23,447.14z M853.09,482.77c0,0-0.11-0.51-0.21-0.93
		c-0.09-0.43-0.24-1.09-0.24-1.09c-2.43,4.01-9.78,15.49-17.98,19.39v0.32C843.87,496.1,851.05,485.99,853.09,482.77L853.09,482.77z
		 M838.23,494.88c5.88-4.3,11.51-11.16,14.22-15.23c0,0-0.08-0.48-0.14-0.87c-0.06-0.38-0.2-1.23-0.2-1.23
		c-2.88,4.69-8.68,12.88-13.89,17.01V494.88L838.23,494.88z M840.67,489.46c4.35-3.9,8.54-9.12,11.25-13.19c0,0-0.14-1.33-0.24-2.36
		c-2.54,4.24-5.97,9.98-11.01,15.23V489.46L840.67,489.46z M842.79,483.59c4.07-4.13,6.78-7.81,8.76-11.09l-0.15-2.85
		c-2.21,4.24-5.27,9.72-8.61,13.62V483.59L842.79,483.59z M1179.24,418.02c0,2.26-2.03,4.3-3.17,4.52c-1.58,0-4.97,0.45-6.78,0.91
		c-19.44,4.52-35.27,21.48-42.51,43.2c-1.13,4.29-2.26,8.36-5.88,23.51c-0.68,2.94-4.07,5.25-7.91,4.75
		c-4.75-0.62-7.24-4.07-7.24-7.91c0-0.91,0.06-1.81,0.23-2.71l1.19-5.76c-9.1,9.44-20.06,17.12-33.29,18.2
		c-10.29,0.79-17.58-1.7-22.67-6.1c-8.36,4.75-17.41,8.37-25.04,8.37c-13.34,0-24.42-7.52-27.18-24.76
		c-7.01,14.13-18.54,25.44-30.47,25.44c-0.68,0-1.36,0-2.04-0.06c-7.97-0.62-12.38-4.8-14.75-10c-3.67,5.42-10.51,11.87-21.87,11.87
		c-11.08,0-23.06-5.43-23.06-26.45c0-11.02,5.88-24.93,13.28-33.25h-2.2c-4.63,0-9.61-0.28-14.36-1.58
		c-2.94,18.72-9.61,43.36-19.1,55.41c-3.85,4.75-8.14,6.56-12.89,6.56c-10.17,0-15.6-8.36-18.09-18.09
		c-7.24,10.85-15.6,19.45-25.32,19.45c-13.57,0-15.83-20.8-15.83-33.91c0-13.12,2.49-37.77,7.69-46.36c1.36-2.26,3.84-4.07,7.91-4.3
		c4.07-0.23,6.78,1.81,6.33,4.97c-1.81,12.44-3.84,25.1-3.84,35.51c0,11.76,0.68,19.9,2.71,24.42c6.1-7.24,12.43-19.67,19.22-43.2
		c1.35-4.75,3.84-7.01,8.36-7.01c3.84,0,6.1,2.04,6.1,7.69c0,5.2-0.22,10.41,0.23,19.01c0.45,8.82,2.04,19.22,4.52,23.06
		c5.43-3.39,12.89-32.11,16.51-51.79c1.13-6.33,3.62-9.5,9.04-9.5c2.71,0,5.2,1.13,8.14,2.26c4.07,1.58,9.04,2.94,13.79,2.94
		c5.2,0,11.76-0.68,18.31-2.71c5.88-1.81,11.07-3.39,14.24-3.39c3.85,0,7.69,1.35,7.69,5.65c0,3.85-2.03,7.69-5.88,8.59
		c-26.23,7.01-29.4,33.02-29.4,35.74c0,7.91,3.85,12.21,8.82,12.21c5.43,0,11.31-2.71,16.05-10.63c2.26-14.92,6.1-28.5,9.95-36.87
		c2.49-5.2,4.98-10.18,8.82-10.18c4.07,0,7.68,2.26,7.68,7.24c0,0.91-0.22,2.03-0.45,2.94c-0.9,4.97-7.91,24.88-7.91,38.45
		c0,3.84,0.9,7.46,2.71,8.82c11.76-2.71,19.67-22.61,26-38.22c2.88-7.12,5.6-15.43,9.78-30.24l-13.17,0.62
		c-8.59,0.45-14.7-0.68-14.7-7.01c0-3.39,2.94-5.65,6.1-6.1c7.35-0.79,14.7-1.19,25.89-2.09c1.13-3.39,1.87-5.42,2.83-8.08
		c4.75-12.89,7.24-16.96,12.89-16.96c3.85,0,6.1,1.81,6.1,5.88c0,1.59-0.68,4.07-2.49,10.63l-2.03,7.17l14.02-1.07
		c6.56-0.68,10.63-0.9,11.98-0.9c6.56,0,7.68,2.03,7.23,6.33c-0.23,2.26-0.9,4.52-2.94,6.1c-3.17,2.71-9.04,3.17-23.29,4.07
		c-3.1,0.23-7.17,0.45-11.19,0.68c-4.75,17.8-6.89,27.47-6.89,42.52c0,16.51,4.29,22.38,10.63,24.64h0.68
		c6.33,0,11.36-2.09,15.66-4.29c-2.09-6.84-2.55-14.53-2.09-21.49c0.91-16.51,12.66-41.16,35.27-41.16
		c11.3,0,20.12,6.33,20.12,19.44c0,8.14-3.85,17.19-9.27,25.11c-4.75,6.89-10.79,13.4-17.35,18.99c1.86,0.62,3.9,0.91,6.28,0.91
		c18.43,0,33.46-18.6,42.56-44.5c1.36-5.2,2.66-10.17,3.79-14.75c0.68-3.84,2.49-7.46,7.24-7.46c4.52,0,8.36,2.04,8.36,8.59
		c0,2.83-0.56,6.22-1.24,9.38l0.12,0.11c6.33-9.5,19.45-21.48,31.88-21.48C1173.82,408.52,1179.24,411.92,1179.24,418.02
		L1179.24,418.02z M502.66,429.33c5.2,0,9.27-4.52,9.27-9.27c0-4.97-3.17-7.46-7.69-7.46c-4.75,0-9.27,4.52-9.27,9.27
		C494.97,426.39,497.91,429.33,502.66,429.33L502.66,429.33z M615.93,410.56c0-4.75,4.07-9.49,8.82-9.49c4.52,0,7.91,2.26,7.91,7.23
		c0,4.75-4.07,9.95-9.27,9.95C618.65,418.25,615.93,415.08,615.93,410.56L615.93,410.56z"/>
</g>
</svg>
