<?xml version="1.0" encoding="utf-8"?>
<!-- Generator: Adobe Illustrator 25.4.1, SVG Export Plug-In . SVG Version: 6.00 Build 0)  -->
<svg version="1.1" id="Layer_1" xmlns="http://www.w3.org/2000/svg" xmlns:xlink="http://www.w3.org/1999/xlink" x="0px" y="0px"
	 viewBox="0 0 290 120" style="enable-background:new 0 0 290 120;" xml:space="preserve">
<style type="text/css">
	.st0{clip-path:url(#SVGID_00000031915357557330140980000007378597208239688353_);}
	.st1{fill:#194991;}
</style>
<g>
	<g>
		<g>
			<defs>
				<path id="SVGID_1_" d="M147.52,27.2l3.37,20.5h-7.2l-1.01-11.23h-0.05h-0.08c-0.14,0.68-0.27,1.39-0.49,2.04l-0.04,0.14
					l-2.92,9.05h-4.19l-2.92-9.05l-0.04-0.14c-0.22-0.65-0.35-1.36-0.49-2.04h-0.08h-0.05l-1.01,11.23h-7.21l3.37-20.5h5.44h2.15
					h0.03h0l0.21,0.82l2.61,9.95h0.16l2.61-9.95l0.21-0.82h0h0.03h2.15H147.52L147.52,27.2z M91.88,59.66h-0.52v-3.48h0.57
					c1.28,0,2.39,0.19,2.39,1.77C94.33,59.46,93.11,59.66,91.88,59.66L91.88,59.66z M98.9,64.41c-0.41-0.6-0.87-0.92-1.25-1.22
					v-0.16c2.77-0.92,3.97-2.23,3.97-5.33c0-5.17-3.92-7.12-8.54-7.12h-9v20.51h7.29V64.5h0.14l3.26,6.58h8.59L98.9,64.41
					L98.9,64.41z M90.76,47.71h-7.18V27.2h7.18v6.91h4.57V27.2h7.18v20.5h-7.18v-7.12h-4.57V47.71L90.76,47.71z M159.87,42.81h-0.84
					v-3.4h0.73c1.2,0,3.1-0.03,3.1,1.69C162.86,42.78,161.09,42.81,159.87,42.81L159.87,42.81z M159.02,32.15h0.52
					c1.09,0,2.48-0.11,2.48,1.41c0,1.41-1.22,1.52-2.31,1.52h-0.68V32.15L159.02,32.15z M166.12,37.18v-0.16
					c1.79-0.57,2.69-2.34,2.69-4.13c0-4.73-4.05-5.68-8.02-5.68h-8.67v20.5h10.14c3.59,0,7.51-1.44,7.51-5.66
					C169.77,39.6,168.35,37.97,166.12,37.18L166.12,37.18z M115.51,27.2h7.45v12.13c0,5.98-3.75,8.7-9.49,8.7
					c-5.74,0-9.49-2.72-9.49-8.7V27.2h7.45v11.42c0,1.6,0.05,3.02,2.04,3.02c1.99,0,2.04-1.41,2.04-3.02V27.2L115.51,27.2z
					 M208.57,40.28l1.36-6.25h0.27l1.36,6.25H208.57L208.57,40.28z M214.12,27.2h-8.24l-7.13,20.5h7.89l0.6-2.56h5.63l0.68,2.56
					h7.89L214.12,27.2L214.12,27.2z M178.76,36.29h-0.52V32.8h0.57c1.28,0,2.39,0.19,2.39,1.77
					C181.21,36.09,179.99,36.29,178.76,36.29L178.76,36.29z M185.78,41.04c-0.41-0.6-0.87-0.92-1.25-1.22v-0.16
					c2.78-0.93,3.97-2.23,3.97-5.33c0-5.17-3.92-7.12-8.54-7.12h-9v20.5h7.29v-6.58h0.14l3.26,6.58h8.59L185.78,41.04L185.78,41.04z
					 M190.92,27.2h7.45v20.5h-7.45V27.2L190.92,27.2z M235.08,27.2h7.13v20.5h-7.13l-6.31-10.37v3.7v5.41v1.25h-7.13V27.2h7.15
					l6.28,10.67v-4.53v-3.36V27.2L235.08,27.2z M36.82,50.57l-7.24,20.51h-6.5l-2.27-10.83c-0.21,0.8-0.41,1.62-0.6,2.36
					c-0.03,0.14-0.06,0.28-0.09,0.42l-2.07,8.05h-6.33L4.54,50.57h7.72l2.51,11.88l0.74-2.91c0.04-0.17,0.08-0.34,0.13-0.51
					l0.32-1.24l0.85-3.37l0,0.05l1-3.9h5.71l2.72,11.88l0.67-2.8c0.03-0.15,0.06-0.3,0.09-0.45l2.07-8.62H36.82L36.82,50.57z
					 M56.67,36.29h-0.51V32.8h0.57c1.28,0,2.39,0.19,2.39,1.77C59.12,36.09,57.9,36.29,56.67,36.29L56.67,36.29z M63.69,41.04
					c-0.41-0.6-0.87-0.92-1.25-1.22v-0.16c2.77-0.93,3.97-2.23,3.97-5.33c0-5.17-3.92-7.12-8.54-7.12h-9v20.5h7.29v-6.58h0.13
					l3.26,6.58h8.59L63.69,41.04L63.69,41.04z M36.66,41.56c-2.26,0-3.84-1.6-3.84-3.94c0-2.18,1.47-4,3.84-4
					c2.37,0,3.83,1.82,3.83,4C40.49,39.96,38.91,41.56,36.66,41.56L36.66,41.56z M36.66,26.88c-6.23,0-11.34,4.19-11.34,10.63
					c0,6.58,5.09,10.52,11.34,10.52c6.25,0,11.34-3.94,11.34-10.52C48,31.06,42.89,26.88,36.66,26.88L36.66,26.88z M6.73,47.71H4
					V27.2h7.15l6.28,10.67v-4.53v-3.28V27.2h7.13v20.5h-7.13l-6.31-10.37v3.7v6.66H6.73L6.73,47.71z M66.81,27.2h15.66v6.49h-4.13
					v14.01h-7.43V33.69h-4.11V27.2L66.81,27.2z M75.8,65.48h6.5v5.61H68.29V50.57h13.79v5.6H75.8v1.96h5.74v5.33H75.8V65.48
					L75.8,65.48z M51.54,50.57H67.2v6.49h-4.12v14.02h-7.43V57.06h-4.11V50.57L51.54,50.57z M41.93,63.65l1.36-6.25h0.27l1.36,6.25
					H41.93L41.93,63.65z M47.48,50.57h-8.24l-7.12,20.51H40l0.6-2.56h5.63l0.68,2.56h7.89L47.48,50.57L47.48,50.57z"/>
			</defs>
			<use xlink:href="#SVGID_1_"  style="overflow:visible;fill:#194991;"/>
			<clipPath id="SVGID_00000107556859176475946000000004854748311457264045_">
				<use xlink:href="#SVGID_1_"  style="overflow:visible;"/>
			</clipPath>
			<g style="clip-path:url(#SVGID_00000107556859176475946000000004854748311457264045_);">
				<defs>
					<rect id="SVGID_00000167358732356415838700000001866317388114167721_" x="4.05" y="26.84" width="238.19" height="44.31"/>
				</defs>
				<use xlink:href="#SVGID_00000167358732356415838700000001866317388114167721_"  style="overflow:visible;fill:#194991;"/>
				<clipPath id="SVGID_00000117668731048645559170000005951907303291646380_">
					<use xlink:href="#SVGID_00000167358732356415838700000001866317388114167721_"  style="overflow:visible;"/>
				</clipPath>
			</g>
		</g>
	</g>
	<path class="st1" d="M186.73,61.88c-0.78-0.54-1.67-0.7-2.63-0.55v0.06c1.09-0.08,1.85,0.32,2.46,0.8c0,0,0.05-0.08,0.09-0.16
		C186.69,61.96,186.73,61.88,186.73,61.88L186.73,61.88z M186.46,62.39c-0.91-0.75-2.18-0.86-3.34-0.6v0.05
		c1.09-0.2,2.28,0.08,3.19,0.86c0,0,0.04-0.09,0.07-0.16C186.42,62.47,186.46,62.39,186.46,62.39L186.46,62.39z M186.39,74.05
		c-0.1,0.2-0.23,0.43-0.38,0.62c-0.03,1.32,0.01,4.9-0.48,7.76h0.05C186.2,79.74,186.37,75.33,186.39,74.05L186.39,74.05z
		 M184.44,84.59c1.02-2.7,1.32-7.59,1.39-9.66c0,0-0.12,0.16-0.19,0.25c-0.07,0.08-0.2,0.25-0.2,0.25
		c-0.07,1.91-0.19,6.44-1.06,9.17H184.44L184.44,84.59z M185.25,75.65c0,0-0.11,0.12-0.2,0.21c-0.09,0.1-0.2,0.21-0.2,0.21
		c-0.05,2.26-0.26,7.83-2.36,11.25h0.05C184.79,84.04,185.18,78.04,185.25,75.65L185.25,75.65z M182.16,86.62
		c1.85-3,2.36-8.08,2.48-10.33c0,0-0.1,0.09-0.2,0.19c-0.1,0.1-0.19,0.17-0.19,0.17c-0.12,2.06-0.43,6.84-2.15,9.98H182.16
		L182.16,86.62z M184.84,67.72c0.22-1.15,0.49-2.24,0.98-3.71c-0.6-0.71-1.47-1.04-2.29-1.04c-1.14,0-2.07,0.27-2.94,1.04
		c-1.53,1.31-2.56,3.93-2.78,6.11c-0.27,2.62,0.16,4.47,2.02,4.47c0.93,0,2.24-0.71,3.27-2.29
		C184.02,70.88,184.52,69.46,184.84,67.72L184.84,67.72z M181.74,62.97c1.54-0.48,3.13-0.35,4.16,0.8l0.12-0.34
		c-1.17-1.02-2.85-1.06-4.29-0.51V62.97L181.74,62.97z M182.35,62.39c1.54-0.36,2.68-0.15,3.74,0.84c0.04-0.11,0.08-0.2,0.13-0.32
		c-1.12-0.9-2.32-0.98-3.87-0.57V62.39L182.35,62.39z M174.2,75.37c0,0-0.13-0.33-0.17-0.47c-0.52,1.08-1.81,3.35-4.31,3.55v0.08
		C172.33,78.45,173.68,76.42,174.2,75.37L174.2,75.37z M169.78,75.05c-0.19-1.77-0.37-3.3-0.41-4.47h-0.08
		c-0.07,1.4-0.07,2.77,0.08,4.47C169.51,75.06,169.62,75.06,169.78,75.05L169.78,75.05z M169.17,75.03c-0.15-1.4-0.31-2.6-0.35-3.62
		h-0.08c-0.05,1.17-0.07,2.29,0.03,3.52C168.85,74.95,169.05,75.01,169.17,75.03L169.17,75.03z M170,75.03
		c0.15-0.02,0.29-0.06,0.4-0.1c-0.42-2.75-0.47-4.94-0.47-6.48h-0.08C169.7,70.5,169.74,72.53,170,75.03L170,75.03z M170.61,74.83
		c0.15-0.06,0.28-0.14,0.39-0.22c-0.41-2.81-0.47-5.97-0.47-7.51h-0.08C170.29,69.64,170.27,72.16,170.61,74.83L170.61,74.83z
		 M170.79,77.48v0.08c1.49-0.41,2.55-1.78,3.17-2.89l-0.15-0.59C173.21,75.22,172.23,76.95,170.79,77.48L170.79,77.48z
		 M171.76,76.21c0.95-0.68,1.58-1.58,2-2.38c0,0-0.07-0.34-0.1-0.64c-0.38,0.87-0.94,2.1-1.9,2.94V76.21L171.76,76.21z
		 M159.44,64.09h-0.03c-0.63,1.54-2.01,4.4-3.26,6.64h0.08c0.94-1.5,1.69-2.83,2.3-4.03c0.25-0.49,0.61-1.17,0.83-1.57
		C159.41,64.95,159.47,64.54,159.44,64.09L159.44,64.09z M159.22,65.91h-0.04c-0.33,0.75-2.47,5.15-3.64,7.26h0.08
		c1.53-2.51,2.12-3.78,2.83-5.14l0.19-0.38C158.83,67.22,159.14,66.35,159.22,65.91L159.22,65.91z M156.89,68.34h0.08
		c1.17-1.95,2.11-4.01,2.43-4.83c0.02-0.27-0.08-0.43-0.17-0.54C159,63.79,158.01,66.22,156.89,68.34L156.89,68.34z M148.97,62.26
		c-0.76,0.91-1.84,1.95-2.98,2.28v0.08c0.97-0.22,2.17-0.99,2.77-1.64L148.97,62.26L148.97,62.26z M148.66,63.27
		c-0.9,0.94-2.23,2.07-3.76,2.15v0.08c1.49-0.04,2.68-0.77,3.56-1.56L148.66,63.27L148.66,63.27z M148.37,64.24
		c-0.98,0.91-2.5,2.04-4.25,2v0.08c1.5,0.08,3.01-0.6,4.05-1.44L148.37,64.24L148.37,64.24z M148.08,65.15
		c-0.97,0.83-2.37,1.76-3.92,1.83v0.08c1.47-0.03,2.77-0.56,3.71-1.24L148.08,65.15L148.08,65.15z M141.78,66.22
		c-0.09-0.11-0.22-0.29-0.3-0.4c-0.64,1.73-2.51,6.89-4.56,10.5h0.08C138.59,73.95,140.84,68.63,141.78,66.22L141.78,66.22z
		 M137.14,74.21h0.08c1.46-2.25,3.11-6,4.13-8.58c0,0-0.08-0.11-0.12-0.18c-0.04-0.06-0.14-0.23-0.14-0.23
		C140.19,67.55,138.72,71.38,137.14,74.21L137.14,74.21z M138.1,70.86h0.08c0.94-1.57,2.01-3.88,2.81-5.82c0,0-0.16-0.28-0.23-0.41
		C139.76,67.01,138.94,69.28,138.1,70.86L138.1,70.86z M138.35,69.12h0.08c0.86-1.5,1.58-3.13,2.21-4.73c0,0-0.07-0.15-0.11-0.22
		c-0.03-0.07-0.12-0.25-0.12-0.25C139.48,66.39,139.17,67.38,138.35,69.12L138.35,69.12z M129.6,68.14c0-0.15,0-0.55,0-0.55
		c-0.78,1.65-1.7,3.74-2.86,5.43h0.08c1.02-1.35,1.98-2.9,2.77-4.45C129.59,68.56,129.6,68.28,129.6,68.14L129.6,68.14z M129.58,69
		c-1.08,2.06-2.33,4.44-3.86,6.38h0.08c1.37-1.54,2.68-3.45,3.77-5.44C129.57,69.68,129.58,69.3,129.58,69L129.58,69z M129.57,71.25
		c0,0,0-0.18,0-0.35c0-0.24,0-0.55,0-0.55c-1.1,2.15-2.52,4.88-4.22,6.85h0.08C126.87,75.76,128.41,73.47,129.57,71.25L129.57,71.25
		z M127.36,70.97h0.08c0.8-1.22,1.53-2.49,2.15-3.89c0,0,0,0,0,0l0.01-0.01c0,0,0,0.01-0.01,0.01c0-0.1,0-0.26,0-0.42
		c0-0.22-0.01-0.46-0.01-0.6C128.93,67.6,128.25,69.36,127.36,70.97L127.36,70.97z M117.25,72.38c-0.6,1.01-1.42,2.21-2.55,3.36
		l0,0.08c1.15-0.98,1.89-1.89,2.41-2.57c0.02-0.1,0.03-0.23,0.06-0.36C117.19,72.71,117.22,72.52,117.25,72.38L117.25,72.38z
		 M117.05,73.66c-0.82,1.19-2.29,3.03-4.09,4.33v0.08c1.66-0.98,3.22-2.66,4.01-3.61C116.98,74.27,117.02,73.85,117.05,73.66
		L117.05,73.66z M116.94,74.82c-0.7,0.89-2.44,3.34-5.1,4.69v0.08c2.4-1.06,4.45-3.3,5.09-4.09
		C116.93,75.5,116.93,75.14,116.94,74.82L116.94,74.82z M189.97,62.75c0,0.33-0.11,0.76-0.27,1.2c-0.87,2.35-1.25,5.18-1.36,8.51
		c-0.05,1.96-0.16,4.47-0.33,6.38c-0.49,6-3.33,14.28-10.74,14.28c-5.01,0-7.91-3.98-7.91-8.51c0-1.69,0.54-2.89,2.29-2.89
		c0.22,0,0.93,0.16,0.98,0.49c0.38,3.71,1.96,6.98,4.96,6.98c5.27,0,6.26-9.21,6.45-12.33c-1.65,1.36-3.33,1.8-4.55,1.81h-0.1
		c-2.56,0-4.25-1.14-5.07-3c-0.55,1.14-2.02,3.22-4.58,3.22c-2.13,0-3.22-1.74-3.22-5.34c0-1.58,0.16-3.16,0.16-6.05
		c0-1.2-0.11-2.78-0.65-3.16c-0.6,0.44-2.24,2.24-7.96,13.91c-0.38,0.76-0.93,1.14-1.74,1.14c-1.26-0.06-2.18-0.6-2.18-1.85
		c0-0.27,0.11-0.76,0.27-1.2h-0.06c-1.09,1.58-2.83,3.32-5.07,3.32c-1.53,0-3.43-1.04-3.43-4.58c0-2.56,1.04-6.38,1.91-8.89
		c-0.65,0.6-2.34,1.25-3.54,1.25c-0.71,0-1.53-0.16-2.24-0.98c-3.33,8.23-5.34,13.47-8.94,13.47c-3.6,0-3.43-7.96-3.43-8.18
		c-1.47,3.11-4.8,8.5-8.72,8.5c-2.4,0-3.6-1.47-3.93-4.31c-2.62,2.83-4.74,4.52-7.2,4.52c-2.18,0-3.82-1.85-3.82-6.32
		c0-6.32,2.67-15.05,6.27-20.5c1.42-2.18,2.13-2.4,2.89-2.4c1.25,0,1.58,0.82,1.58,1.2c0,0.54-0.38,1.25-0.87,2.18
		c-2.73,5.23-5.45,12.65-5.45,19.47c0,1.25,0.05,1.64,0.11,1.91c3.22-1.31,5.34-4.47,7.14-7.69c0.82-1.47,1.36-2.67,1.75-3.66
		c0.54-1.42,1.09-2.13,1.96-2.13c0.6,0,1.74,0.38,1.74,1.64c0,0.55-0.27,1.69-0.55,2.67c-1.36,4.91-1.42,6.05-1.42,7.31
		c0,0.87,0.16,1.53,0.33,1.69c3.98-2.13,7.2-11.78,7.41-12.65c0.44-1.58,0.71-2.62,2.34-2.62c1.09,0,1.69,0.6,2.07,2.4
		c0.6,2.62,0.33,6.71,1.04,11.23c1.96-3.93,3.92-9.11,5.23-12.76c0.54-1.47,1.2-1.8,2.02-1.8c0.76,0,1.2,0.44,1.75,1.36
		c0.98,1.69,1.53,2.45,1.96,2.51c1.53-0.54,2.73-1.58,3.49-2.4c0.82-0.87,1.31-1.31,2.02-1.31c0.76,0,1.8,0.49,1.8,1.8
		c0,1.2-0.54,2.62-0.87,3.98c-1.25,4.96-1.47,6.6-1.47,8.07c0,0.87,0.11,1.58,0.33,1.8c0.65-0.33,1.64-1.04,2.62-2.51
		c2.24-3.38,4.85-9.05,5.4-10.31c0.49-1.14,1.04-1.8,2.07-1.8c1.09,0,1.8,0.6,1.8,1.8c0,0.54-0.05,1.04-0.22,1.58h0.05
		c1.53-2.73,2.73-3.65,4.69-3.65c3.38,0,3.98,3.43,3.98,7.74v1.36c0,1.85,0.22,3.98,0.33,4.8c1.47-1.25,1.74-3.05,2.13-4.58
		c0.76-2.94,1.85-5.51,3.6-7.47c2.12-2.4,4.36-3.11,6.27-3.11c1.74,0,3.22,0.33,4.53,1.69C188.93,61.12,189.97,61.61,189.97,62.75
		L189.97,62.75z M279.03,60.98h-0.08c-2.09,1.38-3.56,3.18-4.47,4.68l-0.5,1.77C274.86,65.51,276.42,63,279.03,60.98L279.03,60.98z
		 M274.66,65.03c0.74-1.13,1.69-2.54,3.18-3.75h-0.07c-1.16,0.89-2.09,1.77-2.81,2.73L274.66,65.03L274.66,65.03z M275.05,63.63
		c0.39-0.57,0.84-1.22,1.85-2.12h-0.06c-0.61,0.41-1.09,0.76-1.57,1.33L275.05,63.63L275.05,63.63z M269.7,67.95
		c-0.56,0.82-1.32,1.81-2.04,2.53v0.08c0.65-0.54,1.29-1.12,1.85-1.8L269.7,67.95L269.7,67.95z M269.41,69.13
		c-0.72,0.91-1.79,2.21-2.96,3.13v0.08c1.35-0.93,2.24-1.79,2.78-2.45L269.41,69.13L269.41,69.13z M269.13,70.31l-0.01,0.01
		c-0.82,0.93-2.48,2.8-3.95,3.62v0.08c1.59-0.79,3.04-2.14,3.8-2.96L269.13,70.31L269.13,70.31z M268.89,71.39
		c-0.65,0.72-2.66,2.93-4.66,3.92v0.08c2.02-0.94,3.84-2.63,4.5-3.31C268.77,71.88,268.84,71.6,268.89,71.39L268.89,71.39z
		 M259.62,76.47c-1.69-0.03-2.88-0.73-3.77-1.45c0,0-0.31,0.18-0.47,0.28c0.84,0.68,2.19,1.24,4.23,1.24V76.47L259.62,76.47z
		 M256.12,74.86c0.79,0.64,1.82,0.95,3.12,1.04v-0.08c-0.98-0.12-1.96-0.62-2.75-1.2L256.12,74.86L256.12,74.86z M257.07,74.23
		l-0.34,0.23c0.55,0.41,1.13,0.59,1.83,0.74v-0.08C258.09,74.96,257.48,74.62,257.07,74.23L257.07,74.23z M256.51,66.95
		c0,0.89,0.11,1.83,0.41,2.69c2.63-2.21,4.88-5.22,4.88-7.7c0-0.55-0.27-1.36-1.2-1.53C258.74,60.68,256.51,63.68,256.51,66.95
		L256.51,66.95z M254.79,71.17c-0.23-0.63-0.47-1.21-0.6-2.27h-0.08c0,0.84,0.05,1.48,0.34,2.47L254.79,71.17L254.79,71.17z
		 M254.3,71.47c-0.34-0.95-0.75-2.15-0.75-4.18h-0.08c-0.04,0.38-0.03,0.72-0.03,1.1c0,1.13,0.15,2.16,0.48,3.29
		C253.91,71.69,254.17,71.55,254.3,71.47L254.3,71.47z M253.73,71.79c-0.65-2.19-0.83-4.45-0.46-6.76h-0.08
		c-0.51,2.28-0.48,4.68,0.16,6.96l0.24-0.13L253.73,71.79L253.73,71.79z M246.18,67.88c-0.05-4.88,1.82-10.84,1.85-10.89
		c-0.15,0.01-0.33,0.02-0.47,0.03c-0.93,3.5-1.63,7.17-1.45,10.87H246.18L246.18,67.88z M245.65,65.25
		c0.42-4.16,1.27-6.92,1.68-8.22l-0.42,0.02c-0.37,1.34-1.09,4.39-1.34,8.2H245.65L245.65,65.25z M245.52,61.55h0.08
		c0.39-2.22,0.85-3.65,1.1-4.49c-0.13,0-0.24,0.01-0.36,0.02C246.1,57.91,245.81,59.21,245.52,61.55L245.52,61.55z M247.43,53.45
		l0.28-0.02l0.28-0.93h-0.08C247.72,52.83,247.57,53.14,247.43,53.45L247.43,53.45z M248.69,51.7c-0.33,0.59-0.59,1.2-0.79,1.72
		l0.36-0.03c0.14-0.48,0.27-0.96,0.51-1.69H248.69L248.69,51.7z M248.47,53.37l0.42-0.03l0.69-2.73h-0.08
		C249.11,51.51,248.75,52.54,248.47,53.37L248.47,53.37z M242.52,66.73c-0.45,1.02-1.22,2.8-1.86,3.85v0.08
		c0.76-1.08,1.34-2.15,1.74-2.96C242.42,67.42,242.47,67.12,242.52,66.73L242.52,66.73z M242.48,71.15
		c-0.03-0.19-0.06-0.47-0.08-0.67c-0.56,1.2-2,3.67-3.53,5.07v0.08C240.58,74.29,241.86,72.29,242.48,71.15L242.48,71.15z
		 M239.57,73.97c1.17-1.19,1.95-2.41,2.81-3.83c-0.01-0.2-0.03-0.5-0.03-0.71c-0.61,1.17-1.74,3.19-2.78,4.46V73.97L239.57,73.97z
		 M240.26,72.21c0.79-0.97,1.57-2.19,2.08-3.16c0,0,0-0.25,0.01-0.45c0.01-0.19,0.02-0.46,0.02-0.46c-0.52,1.16-1.16,2.52-2.11,4
		V72.21L240.26,72.21z M231.02,74.93c-0.05-0.13-0.11-0.3-0.15-0.44c-0.86,1.28-2.41,3.17-5.2,3.07v0.08
		C228.8,77.73,230.31,76.06,231.02,74.93L231.02,74.93z M226.23,76.87c2.26-0.08,3.76-1.53,4.56-2.66c0,0-0.03-0.1-0.06-0.21
		c-0.03-0.11-0.06-0.27-0.06-0.27c-0.8,1.2-2.29,2.96-4.44,3.07V76.87L226.23,76.87z M227.37,75.81c1.4-0.34,2.52-1.35,3.26-2.34
		c0,0-0.02-0.09-0.04-0.26c-0.02-0.17-0.03-0.27-0.03-0.27c-0.69,1.1-1.78,2.37-3.2,2.79V75.81L227.37,75.81z M223.77,66.42
		c0.51-1.2,1.37-2.25,2.01-2.94l-0.52,0.07c-0.55,0.63-1.06,1.52-1.56,2.88H223.77L223.77,66.42z M222.39,67.76
		c0.63-1.88,1.87-3.32,2.66-4.2c0,0-0.15,0.01-0.24,0.02c-0.09,0.01-0.29,0.02-0.29,0.02c-0.74,0.86-1.58,2.18-2.2,4.15H222.39
		L222.39,67.76z M224.29,63.63l-0.31,0.02c0,0-0.18,0.01-0.25,0.01c-0.75,0.87-1.69,2.39-2.3,4.43h0.08
		C222.09,66.19,223.47,64.54,224.29,63.63L224.29,63.63z M226.07,63.43c-0.36,0.41-0.65,0.93-1.01,1.73h0.08
		c0.42-0.79,0.94-1.32,1.41-1.81C226.41,63.38,226.29,63.4,226.07,63.43L226.07,63.43z M219.32,63.23c0,0-0.09-0.03-0.16-0.05
		c-0.06-0.02-0.17-0.06-0.17-0.06c-0.33,1.86-1.35,7.07-3.19,11.17h0.08C217.67,71,218.88,65.62,219.32,63.23L219.32,63.23z
		 M215.91,72.24h0.08c1.39-2.79,2.34-6.63,2.83-9.17c0,0-0.1-0.04-0.17-0.07c-0.07-0.03-0.18-0.07-0.18-0.07
		C218.06,65.24,217.32,68.94,215.91,72.24L215.91,72.24z M216.52,68.75h0.08c0.61-1.64,1.27-3.88,1.71-5.89c0,0-0.08-0.04-0.14-0.06
		c-0.06-0.03-0.18-0.09-0.18-0.09C217.58,64.66,217.08,66.97,216.52,68.75L216.52,68.75z M217.03,64.98h0.08
		c0.33-0.81,0.44-1.33,0.72-2.35l-0.29-0.16C217.33,63.65,217.28,64.01,217.03,64.98L217.03,64.98z M207.35,73.57
		c0,0-0.03-0.12-0.05-0.22c-0.02-0.1-0.06-0.26-0.06-0.26c-0.59,0.97-2.36,3.74-4.33,4.68v0.08
		C205.13,76.78,206.86,74.34,207.35,73.57L207.35,73.57z M203.77,76.49c1.42-1.04,2.78-2.69,3.43-3.67c0,0-0.02-0.12-0.03-0.21
		c-0.02-0.09-0.05-0.3-0.05-0.3c-0.7,1.13-2.09,3.11-3.35,4.1V76.49L203.77,76.49z M204.36,75.18c1.05-0.94,2.06-2.2,2.71-3.18
		c0,0-0.03-0.32-0.06-0.57c-0.61,1.02-1.44,2.41-2.65,3.67V75.18L204.36,75.18z M204.87,73.77c0.98-0.99,1.64-1.88,2.11-2.67
		l-0.04-0.69c-0.53,1.02-1.27,2.34-2.08,3.29V73.77L204.87,73.77z M286,57.96c0,0.55-0.49,1.04-0.76,1.09
		c-0.38,0-1.2,0.11-1.64,0.22c-4.69,1.09-8.51,5.18-10.25,10.42c-0.27,1.04-0.54,2.02-1.42,5.67c-0.16,0.71-0.98,1.27-1.91,1.14
		c-1.14-0.15-1.74-0.98-1.74-1.91c0-0.22,0.01-0.44,0.05-0.65l0.29-1.39c-2.19,2.28-4.84,4.13-8.03,4.39
		c-2.48,0.19-4.24-0.41-5.47-1.47c-2.02,1.14-4.2,2.02-6.04,2.02c-3.22,0-5.89-1.81-6.56-5.97c-1.69,3.41-4.47,6.13-7.35,6.13
		c-0.16,0-0.33,0-0.49-0.01c-1.92-0.15-2.99-1.16-3.56-2.41c-0.89,1.31-2.53,2.86-5.27,2.86c-2.67,0-5.56-1.31-5.56-6.38
		c0-2.66,1.42-6.01,3.2-8.02h-0.53c-1.12,0-2.32-0.07-3.46-0.38c-0.71,4.51-2.32,10.46-4.61,13.36c-0.93,1.14-1.96,1.58-3.11,1.58
		c-2.45,0-3.76-2.02-4.36-4.36c-1.75,2.62-3.76,4.69-6.11,4.69c-3.27,0-3.82-5.02-3.82-8.18c0-3.16,0.6-9.11,1.85-11.18
		c0.33-0.55,0.93-0.98,1.91-1.04c0.98-0.05,1.64,0.44,1.53,1.2c-0.44,3-0.93,6.05-0.93,8.56c0,2.84,0.16,4.8,0.65,5.89
		c1.47-1.74,3-4.74,4.63-10.42c0.33-1.14,0.93-1.69,2.02-1.69c0.93,0,1.47,0.49,1.47,1.85c0,1.25-0.05,2.51,0.05,4.58
		c0.11,2.13,0.49,4.63,1.09,5.56c1.31-0.82,3.11-7.74,3.98-12.49c0.27-1.53,0.87-2.29,2.18-2.29c0.65,0,1.25,0.27,1.96,0.55
		c0.98,0.38,2.18,0.71,3.33,0.71c1.25,0,2.84-0.16,4.42-0.65c1.42-0.44,2.67-0.82,3.43-0.82c0.93,0,1.85,0.33,1.85,1.36
		c0,0.93-0.49,1.85-1.42,2.07c-6.32,1.69-7.09,7.96-7.09,8.62c0,1.91,0.93,2.94,2.13,2.94c1.31,0,2.73-0.65,3.87-2.56
		c0.55-3.6,1.47-6.87,2.4-8.89c0.6-1.25,1.2-2.45,2.13-2.45c0.98,0,1.85,0.55,1.85,1.74c0,0.22-0.05,0.49-0.11,0.71
		c-0.22,1.2-1.91,6-1.91,9.27c0,0.93,0.22,1.8,0.65,2.13c2.83-0.65,4.74-5.45,6.27-9.22c0.69-1.72,1.35-3.72,2.36-7.29l-3.18,0.15
		c-2.07,0.11-3.54-0.16-3.54-1.69c0-0.82,0.71-1.36,1.47-1.47c1.77-0.19,3.54-0.29,6.24-0.5c0.27-0.82,0.45-1.31,0.68-1.95
		c1.14-3.11,1.74-4.09,3.11-4.09c0.93,0,1.47,0.44,1.47,1.42c0,0.38-0.16,0.98-0.6,2.56l-0.49,1.73l3.38-0.26
		c1.58-0.16,2.56-0.22,2.89-0.22c1.58,0,1.85,0.49,1.74,1.53c-0.05,0.54-0.22,1.09-0.71,1.47c-0.76,0.65-2.18,0.76-5.62,0.98
		c-0.75,0.06-1.73,0.11-2.7,0.16c-1.14,4.29-1.66,6.62-1.66,10.25c0,3.98,1.04,5.4,2.56,5.94h0.16c1.53,0,2.74-0.5,3.78-1.04
		c-0.5-1.65-0.61-3.5-0.5-5.18c0.22-3.98,3.05-9.92,8.51-9.92c2.73,0,4.85,1.53,4.85,4.69c0,1.96-0.93,4.14-2.24,6.06
		c-1.14,1.66-2.6,3.23-4.18,4.58c0.45,0.15,0.94,0.22,1.51,0.22c4.44,0,8.07-4.48,10.26-10.73c0.33-1.25,0.64-2.45,0.91-3.56
		c0.16-0.93,0.6-1.8,1.74-1.8c1.09,0,2.02,0.49,2.02,2.07c0,0.68-0.14,1.5-0.3,2.26l0.03,0.03c1.53-2.29,4.69-5.18,7.69-5.18
		C284.69,55.67,286,56.48,286,57.96L286,57.96z M122.86,60.68c1.25,0,2.23-1.09,2.23-2.24c0-1.2-0.76-1.8-1.85-1.8
		c-1.14,0-2.24,1.09-2.24,2.24C121,59.97,121.71,60.68,122.86,60.68L122.86,60.68z M150.17,56.16c0-1.14,0.98-2.29,2.13-2.29
		c1.09,0,1.91,0.54,1.91,1.74c0,1.14-0.98,2.4-2.23,2.4C150.82,58.01,150.17,57.25,150.17,56.16L150.17,56.16z"/>
</g>
</svg>
