<?xml version="1.0" encoding="utf-8"?>
<!-- Generator: Adobe Illustrator 25.4.1, SVG Export Plug-In . SVG Version: 6.00 Build 0)  -->
<svg version="1.1" id="Layer_1" xmlns="http://www.w3.org/2000/svg" xmlns:xlink="http://www.w3.org/1999/xlink" x="0px" y="0px"
	 viewBox="0 0 300 85" style="enable-background:new 0 0 300 85;" xml:space="preserve">
<style type="text/css">
	.st0{clip-path:url(#SVGID_00000139253290536980569480000013091706873166060719_);}
	.st1{fill:#194991;}
</style>
<g>
	<g>
		<g>
			<defs>
				<path id="SVGID_1_" d="M152.61,8.54l3.49,21.23h-7.46l-1.04-11.63h-0.06h-0.09c-0.14,0.7-0.28,1.43-0.51,2.11l-0.05,0.14
					l-3.02,9.37h-4.34l-3.02-9.37l-0.05-0.14c-0.22-0.68-0.37-1.41-0.51-2.11h-0.08h-0.06l-1.04,11.63h-7.46l3.49-21.23h5.63h2.23
					h0.03h0l0.22,0.85l2.71,10.31h0.17l2.71-10.31l0.22-0.85h0h0.03h2.23H152.61L152.61,8.54z M95,42.14h-0.53v-3.61h0.59
					c1.32,0,2.48,0.2,2.48,1.83C97.54,41.95,96.27,42.14,95,42.14L95,42.14z M102.27,47.07c-0.42-0.62-0.9-0.96-1.3-1.27v-0.17
					c2.87-0.96,4.11-2.31,4.11-5.52c0-5.35-4.05-7.38-8.84-7.38h-9.32v21.23h7.55v-6.82h0.14l3.38,6.82h8.9L102.27,47.07
					L102.27,47.07z M93.83,29.77H86.4V8.54h7.43v7.15h4.73V8.54H106v21.23h-7.43v-7.38h-4.73V29.77L93.83,29.77z M165.39,24.7h-0.87
					v-3.52h0.76c1.24,0,3.21-0.03,3.21,1.75C168.49,24.67,166.66,24.7,165.39,24.7L165.39,24.7z M164.52,13.66h0.53
					c1.13,0,2.56-0.11,2.56,1.46c0,1.46-1.27,1.58-2.39,1.58h-0.7V13.66L164.52,13.66z M171.87,18.87v-0.17
					c1.86-0.59,2.79-2.42,2.79-4.28c0-4.9-4.2-5.89-8.31-5.89h-8.98v21.23h10.5c3.72,0,7.77-1.49,7.77-5.86
					C175.64,21.38,174.18,19.69,171.87,18.87L171.87,18.87z M119.47,8.54h7.72V21.1c0,6.19-3.89,9.01-9.83,9.01
					c-5.94,0-9.83-2.82-9.83-9.01V8.54h7.71v11.83c0,1.66,0.06,3.12,2.11,3.12c2.06,0,2.11-1.46,2.11-3.12V8.54L119.47,8.54z
					 M215.82,22.08l1.41-6.48h0.28l1.41,6.48H215.82L215.82,22.08z M221.57,8.54h-8.53l-7.38,21.23h8.17l0.62-2.65h5.83l0.7,2.65
					h8.17L221.57,8.54L221.57,8.54z M184.96,17.94h-0.53v-3.6h0.59c1.32,0,2.48,0.2,2.48,1.83
					C187.5,17.75,186.23,17.94,184.96,17.94L184.96,17.94z M192.23,22.87c-0.42-0.62-0.9-0.96-1.3-1.27v-0.17
					c2.87-0.96,4.11-2.31,4.11-5.52c0-5.35-4.06-7.38-8.84-7.38h-9.32v21.23h7.55v-6.81h0.14l3.38,6.81h8.9L192.23,22.87
					L192.23,22.87z M197.55,8.54h7.72v21.23h-7.72V8.54L197.55,8.54z M243.27,8.54h7.38v21.23h-7.38l-6.53-10.73v3.84v5.61v1.29
					h-7.38V8.54h7.41l6.5,11.05V14.9v-3.47V8.54L243.27,8.54z M37.99,32.74L30.5,53.97h-6.73l-2.35-11.22
					c-0.21,0.83-0.43,1.68-0.62,2.45c-0.03,0.14-0.06,0.29-0.09,0.43l-2.14,8.34H12L4.56,32.74h8l2.6,12.3l0.76-3.01
					c0.04-0.18,0.08-0.35,0.13-0.53l0.33-1.28l0.89-3.49l0,0.05l1.04-4.04h5.91l2.81,12.3l0.69-2.9c0.03-0.16,0.06-0.31,0.1-0.47
					l2.14-8.93H37.99L37.99,32.74z M58.54,17.94h-0.53v-3.61h0.59c1.32,0,2.48,0.2,2.48,1.83C61.07,17.75,59.81,17.94,58.54,17.94
					L58.54,17.94z M65.8,22.87c-0.42-0.62-0.9-0.96-1.29-1.27v-0.17c2.87-0.96,4.11-2.31,4.11-5.52c0-5.35-4.06-7.38-8.84-7.38
					h-9.32v21.23h7.55v-6.81h0.14l3.38,6.81h8.9L65.8,22.87L65.8,22.87z M37.82,23.41c-2.34,0-3.97-1.66-3.97-4.08
					c0-2.25,1.52-4.14,3.97-4.14c2.45,0,3.97,1.88,3.97,4.14C41.79,21.75,40.15,23.41,37.82,23.41L37.82,23.41z M37.82,8.2
					c-6.45,0-11.74,4.34-11.74,11.01c0,6.81,5.27,10.9,11.74,10.9c6.48,0,11.74-4.08,11.74-10.9C49.56,12.54,44.26,8.2,37.82,8.2
					L37.82,8.2z M6.83,29.77H4V8.54h7.41l6.5,11.05V14.9v-3.4V8.54h7.38v21.23h-7.38l-6.53-10.73v3.84v6.9H6.83L6.83,29.77z
					 M69.04,8.54h16.22v6.72h-4.27v14.51h-7.69V15.26h-4.25V8.54L69.04,8.54z M78.34,48.17h6.73v5.8h-14.5V32.74h14.28v5.8h-6.5
					v2.03h5.94v5.52h-5.94V48.17L78.34,48.17z M53.22,32.74h16.22v6.72h-4.27v14.51h-7.69V39.46h-4.25V32.74L53.22,32.74z
					 M43.28,46.28l1.41-6.48h0.28l1.41,6.48H43.28L43.28,46.28z M49.02,32.74h-8.53l-7.38,21.23h8.16l0.62-2.65h5.83l0.71,2.65h8.17
					L49.02,32.74L49.02,32.74z"/>
			</defs>
			<use xlink:href="#SVGID_1_"  style="overflow:visible;fill:#194991;"/>
			<clipPath id="SVGID_00000027566863434108758170000016263089918925598652_">
				<use xlink:href="#SVGID_1_"  style="overflow:visible;"/>
			</clipPath>
			<g style="clip-path:url(#SVGID_00000027566863434108758170000016263089918925598652_);">
				<defs>
					<rect id="SVGID_00000120520832260588597700000009098025331606155910_" x="4.05" y="8.17" width="246.63" height="45.89"/>
				</defs>
				<use xlink:href="#SVGID_00000120520832260588597700000009098025331606155910_"  style="overflow:visible;fill:#194991;"/>
				<clipPath id="SVGID_00000041987407905040677280000005172607598901490316_">
					<use xlink:href="#SVGID_00000120520832260588597700000009098025331606155910_"  style="overflow:visible;"/>
				</clipPath>
			</g>
		</g>
	</g>
	<path class="st1" d="M193.21,44.45c-0.8-0.56-1.73-0.72-2.73-0.57v0.06c1.13-0.09,1.91,0.33,2.55,0.83c0,0,0.05-0.09,0.09-0.16
		C193.17,44.53,193.21,44.45,193.21,44.45L193.21,44.45z M192.93,44.97c-0.95-0.78-2.26-0.89-3.46-0.62v0.06
		c1.13-0.21,2.36,0.09,3.31,0.89c0,0,0.04-0.09,0.08-0.17C192.89,45.05,192.93,44.97,192.93,44.97L192.93,44.97z M192.86,57.05
		c-0.1,0.21-0.24,0.45-0.39,0.64c-0.03,1.37,0.01,5.07-0.5,8.04h0.06C192.66,62.94,192.83,58.37,192.86,57.05L192.86,57.05z
		 M190.83,67.97c1.06-2.79,1.37-7.86,1.44-10.01c0,0-0.13,0.17-0.19,0.26c-0.07,0.09-0.2,0.26-0.2,0.26
		c-0.07,1.98-0.2,6.67-1.1,9.49H190.83L190.83,67.97z M191.68,58.7c0,0-0.11,0.12-0.21,0.22c-0.09,0.1-0.2,0.22-0.2,0.22
		c-0.06,2.34-0.27,8.11-2.44,11.65h0.06C191.2,67.4,191.61,61.17,191.68,58.7L191.68,58.7z M188.48,70.06
		c1.92-3.1,2.44-8.37,2.57-10.7c0,0-0.1,0.09-0.21,0.19c-0.11,0.1-0.19,0.17-0.19,0.17c-0.13,2.13-0.45,7.08-2.23,10.33H188.48
		L188.48,70.06z M191.25,50.49c0.23-1.19,0.51-2.32,1.02-3.84c-0.62-0.73-1.52-1.07-2.37-1.07c-1.19,0-2.15,0.28-3.05,1.07
		c-1.58,1.36-2.65,4.07-2.88,6.33c-0.28,2.71,0.17,4.63,2.09,4.63c0.96,0,2.31-0.73,3.39-2.37
		C190.41,53.77,190.92,52.3,191.25,50.49L191.25,50.49z M188.04,45.57c1.59-0.49,3.24-0.36,4.31,0.83l0.13-0.35
		c-1.21-1.06-2.96-1.1-4.44-0.53V45.57L188.04,45.57z M188.68,44.98c1.6-0.37,2.77-0.15,3.87,0.87c0.04-0.11,0.08-0.21,0.13-0.33
		c-1.16-0.93-2.4-1.01-4.01-0.59V44.98L188.68,44.98z M180.24,58.41c0,0-0.13-0.34-0.17-0.48c-0.54,1.11-1.88,3.46-4.46,3.68v0.08
		C178.3,61.6,179.7,59.5,180.24,58.41L180.24,58.41z M175.65,58.08c-0.2-1.83-0.38-3.42-0.42-4.63h-0.08
		c-0.07,1.45-0.07,2.86,0.08,4.63C175.38,58.1,175.5,58.1,175.65,58.08L175.65,58.08z M175.03,58.06c-0.16-1.45-0.32-2.69-0.36-3.75
		h-0.08c-0.06,1.21-0.07,2.37,0.03,3.64C174.69,57.98,174.9,58.04,175.03,58.06L175.03,58.06z M175.88,58.06
		c0.15-0.02,0.3-0.06,0.42-0.11c-0.44-2.85-0.49-5.11-0.49-6.71h-0.08C175.57,53.37,175.61,55.48,175.88,58.06L175.88,58.06z
		 M176.52,57.86c0.16-0.06,0.29-0.14,0.4-0.23c-0.42-2.91-0.48-6.18-0.48-7.78h-0.08C176.19,52.48,176.16,55.09,176.52,57.86
		L176.52,57.86z M176.7,60.6v0.08c1.54-0.42,2.64-1.84,3.29-3l-0.15-0.61C179.21,58.26,178.2,60.05,176.7,60.6L176.7,60.6z
		 M177.71,59.28c0.99-0.71,1.64-1.63,2.07-2.47c0,0-0.07-0.35-0.1-0.66c-0.4,0.9-0.97,2.17-1.97,3.05V59.28L177.71,59.28z
		 M164.95,46.73h-0.03c-0.66,1.59-2.08,4.56-3.38,6.87h0.08c0.97-1.55,1.75-2.94,2.39-4.18c0.25-0.51,0.63-1.21,0.85-1.62
		C164.92,47.62,164.98,47.2,164.95,46.73L164.95,46.73z M164.73,48.62h-0.04c-0.34,0.78-2.56,5.33-3.77,7.52h0.08
		c1.58-2.6,2.19-3.92,2.93-5.33l0.2-0.4C164.32,49.97,164.64,49.07,164.73,48.62L164.73,48.62z M162.31,51.14h0.08
		c1.21-2.02,2.18-4.15,2.52-5c0.02-0.28-0.08-0.45-0.17-0.56C164.5,46.43,163.47,48.94,162.31,51.14L162.31,51.14z M154.11,44.84
		c-0.79,0.94-1.9,2.02-3.09,2.36v0.08c1-0.23,2.25-1.02,2.87-1.7L154.11,44.84L154.11,44.84z M153.79,45.89
		c-0.93,0.97-2.31,2.14-3.89,2.23v0.08c1.54-0.04,2.78-0.8,3.68-1.62L153.79,45.89L153.79,45.89z M153.48,46.89
		c-1.02,0.95-2.59,2.11-4.4,2.07v0.08c1.55,0.08,3.12-0.63,4.19-1.49L153.48,46.89L153.48,46.89z M153.19,47.84
		c-1,0.86-2.45,1.82-4.06,1.89v0.08c1.52-0.03,2.87-0.58,3.84-1.29L153.19,47.84L153.19,47.84z M146.67,48.94
		c-0.09-0.11-0.23-0.3-0.31-0.41c-0.66,1.79-2.6,7.13-4.73,10.87h0.08C143.36,56.95,145.69,51.44,146.67,48.94L146.67,48.94z
		 M141.86,57.21h0.08c1.51-2.33,3.22-6.21,4.28-8.88c0,0-0.08-0.12-0.12-0.18c-0.04-0.07-0.15-0.24-0.15-0.24
		C145.02,50.31,143.5,54.28,141.86,57.21L141.86,57.21z M142.85,53.74h0.08c0.97-1.62,2.08-4.02,2.91-6.03c0,0-0.17-0.29-0.24-0.43
		C144.57,49.76,143.72,52.11,142.85,53.74L142.85,53.74z M143.11,51.95h0.08c0.89-1.55,1.64-3.24,2.29-4.89c0,0-0.08-0.15-0.11-0.22
		c-0.04-0.07-0.13-0.26-0.13-0.26C144.29,49.11,143.96,50.14,143.11,51.95L143.11,51.95z M134.06,50.93c0-0.15,0-0.57,0-0.57
		c-0.8,1.71-1.76,3.87-2.96,5.62h0.08c1.06-1.4,2.05-3,2.87-4.61C134.05,51.36,134.06,51.08,134.06,50.93L134.06,50.93z
		 M134.04,51.82c-1.11,2.13-2.41,4.6-3.99,6.6h0.08c1.42-1.59,2.77-3.57,3.9-5.63C134.02,52.52,134.03,52.13,134.04,51.82
		L134.04,51.82z M134.03,54.15c0,0-0.01-0.18-0.01-0.36c0-0.25,0-0.57,0-0.57c-1.14,2.23-2.61,5.05-4.37,7.1h0.08
		C131.23,58.82,132.82,56.45,134.03,54.15L134.03,54.15z M131.73,53.86h0.08c0.83-1.27,1.58-2.57,2.23-4.02c0,0,0,0,0,0l0.01-0.01
		c0,0,0,0.01-0.01,0.01c0-0.11,0-0.27,0-0.44c0-0.23-0.01-0.48-0.01-0.62C133.36,50.37,132.65,52.19,131.73,53.86L131.73,53.86z
		 M121.26,55.32c-0.62,1.05-1.47,2.29-2.64,3.47l0,0.08c1.19-1.02,1.96-1.96,2.49-2.66c0.02-0.1,0.04-0.23,0.06-0.37
		C121.2,55.66,121.24,55.47,121.26,55.32L121.26,55.32z M121.06,56.65c-0.85,1.23-2.37,3.14-4.23,4.48v0.08
		c1.72-1.01,3.33-2.75,4.15-3.74C120.99,57.27,121.03,56.84,121.06,56.65L121.06,56.65z M120.95,57.85
		c-0.72,0.92-2.53,3.45-5.28,4.85v0.08c2.48-1.1,4.61-3.41,5.27-4.23C120.94,58.55,120.93,58.17,120.95,57.85L120.95,57.85z
		 M196.56,45.35c0,0.34-0.11,0.79-0.28,1.24c-0.9,2.43-1.3,5.37-1.41,8.81c-0.06,2.03-0.17,4.63-0.34,6.6
		c-0.51,6.21-3.44,14.79-11.12,14.79c-5.19,0-8.19-4.12-8.19-8.81c0-1.75,0.56-2.99,2.37-2.99c0.23,0,0.96,0.17,1.02,0.51
		c0.4,3.84,2.03,7.23,5.14,7.23c5.46,0,6.48-9.54,6.68-12.77c-1.71,1.41-3.44,1.86-4.71,1.88h-0.1c-2.65,0-4.4-1.19-5.25-3.1
		c-0.56,1.19-2.09,3.33-4.74,3.33c-2.2,0-3.33-1.81-3.33-5.53c0-1.64,0.17-3.27,0.17-6.27c0-1.24-0.11-2.88-0.68-3.28
		c-0.62,0.45-2.31,2.32-8.24,14.4c-0.39,0.79-0.96,1.19-1.81,1.19c-1.3-0.06-2.26-0.62-2.26-1.92c0-0.28,0.11-0.79,0.28-1.24h-0.06
		c-1.13,1.64-2.93,3.44-5.25,3.44c-1.58,0-3.56-1.07-3.56-4.74c0-2.65,1.07-6.6,1.98-9.2c-0.68,0.62-2.43,1.3-3.67,1.3
		c-0.73,0-1.58-0.17-2.31-1.02c-3.44,8.53-5.53,13.94-9.26,13.94s-3.56-8.24-3.56-8.47c-1.52,3.22-4.97,8.81-9.03,8.81
		c-2.48,0-3.73-1.52-4.06-4.46c-2.71,2.94-4.91,4.68-7.45,4.68c-2.26,0-3.95-1.92-3.95-6.55c0-6.55,2.77-15.58,6.49-21.23
		c1.47-2.26,2.2-2.48,2.99-2.48c1.3,0,1.64,0.85,1.64,1.24c0,0.56-0.4,1.3-0.9,2.26c-2.82,5.42-5.64,13.1-5.64,20.16
		c0,1.3,0.06,1.69,0.11,1.98c3.33-1.36,5.53-4.63,7.39-7.96c0.85-1.53,1.41-2.77,1.81-3.78c0.56-1.47,1.13-2.2,2.03-2.2
		c0.62,0,1.81,0.4,1.81,1.69c0,0.56-0.28,1.75-0.56,2.77c-1.41,5.08-1.47,6.27-1.47,7.57c0,0.9,0.17,1.58,0.34,1.75
		c4.12-2.2,7.45-12.2,7.68-13.1c0.45-1.64,0.73-2.71,2.43-2.71c1.13,0,1.75,0.62,2.15,2.48c0.62,2.71,0.34,6.95,1.07,11.63
		c2.03-4.06,4.06-9.43,5.42-13.21c0.56-1.52,1.24-1.86,2.09-1.86c0.79,0,1.24,0.45,1.81,1.41c1.02,1.75,1.58,2.54,2.03,2.6
		c1.58-0.56,2.82-1.64,3.61-2.48c0.85-0.9,1.35-1.36,2.09-1.36c0.79,0,1.86,0.51,1.86,1.86c0,1.24-0.56,2.71-0.9,4.12
		c-1.3,5.14-1.52,6.83-1.52,8.36c0,0.9,0.11,1.64,0.34,1.86c0.68-0.34,1.69-1.07,2.71-2.6c2.31-3.5,5.03-9.37,5.59-10.67
		c0.51-1.19,1.07-1.86,2.15-1.86c1.13,0,1.86,0.62,1.86,1.86c0,0.56-0.06,1.07-0.22,1.64h0.06c1.58-2.82,2.82-3.78,4.85-3.78
		c3.5,0,4.12,3.56,4.12,8.02v1.41c0,1.92,0.23,4.12,0.34,4.97c1.52-1.3,1.81-3.16,2.2-4.74c0.79-3.05,1.92-5.7,3.73-7.74
		c2.2-2.48,4.52-3.22,6.49-3.22c1.81,0,3.33,0.34,4.69,1.75C195.49,43.66,196.56,44.17,196.56,45.35L196.56,45.35z M288.79,43.52
		h-0.09c-2.16,1.43-3.69,3.29-4.63,4.85l-0.52,1.83C284.47,48.21,286.08,45.61,288.79,43.52L288.79,43.52z M284.26,47.7
		c0.76-1.17,1.75-2.63,3.29-3.88h-0.07c-1.2,0.92-2.16,1.83-2.91,2.82L284.26,47.7L284.26,47.7z M284.66,46.26
		c0.4-0.59,0.87-1.27,1.92-2.2h-0.06c-0.63,0.42-1.13,0.78-1.62,1.37L284.66,46.26L284.66,46.26z M279.12,50.73
		c-0.58,0.85-1.37,1.87-2.12,2.62v0.08c0.68-0.56,1.34-1.16,1.92-1.87L279.12,50.73L279.12,50.73z M278.82,51.96
		c-0.75,0.95-1.85,2.29-3.06,3.24v0.08c1.4-0.96,2.32-1.86,2.88-2.53L278.82,51.96L278.82,51.96z M278.54,53.17l-0.01,0.01
		c-0.85,0.96-2.57,2.9-4.09,3.75v0.08c1.65-0.82,3.14-2.22,3.93-3.06L278.54,53.17L278.54,53.17z M278.29,54.3
		c-0.68,0.75-2.75,3.03-4.83,4.06v0.08c2.09-0.97,3.97-2.72,4.66-3.42C278.16,54.8,278.23,54.51,278.29,54.3L278.29,54.3z
		 M268.68,59.55c-1.75-0.03-2.98-0.75-3.9-1.5c0,0-0.32,0.19-0.48,0.29c0.87,0.7,2.27,1.29,4.38,1.29V59.55L268.68,59.55z
		 M265.06,57.88c0.82,0.66,1.89,0.98,3.23,1.08v-0.08c-1.02-0.13-2.03-0.64-2.85-1.24L265.06,57.88L265.06,57.88z M266.05,57.24
		l-0.35,0.24c0.56,0.42,1.17,0.61,1.89,0.76v-0.08C267.1,57.99,266.47,57.64,266.05,57.24L266.05,57.24z M265.46,49.7
		c0,0.92,0.11,1.89,0.42,2.78c2.72-2.29,5.05-5.41,5.05-7.98c0-0.56-0.28-1.41-1.24-1.58C267.77,43.21,265.46,46.31,265.46,49.7
		L265.46,49.7z M263.68,54.07c-0.24-0.65-0.49-1.25-0.62-2.35h-0.08c0,0.87,0.06,1.53,0.35,2.56L263.68,54.07L263.68,54.07z
		 M263.17,54.38c-0.35-0.99-0.78-2.22-0.78-4.33h-0.08c-0.04,0.4-0.04,0.75-0.04,1.14c0,1.17,0.16,2.24,0.5,3.41
		C262.77,54.61,263.05,54.45,263.17,54.38L263.17,54.38z M262.59,54.71c-0.68-2.27-0.86-4.61-0.48-7h-0.08
		c-0.52,2.36-0.5,4.85,0.17,7.2l0.25-0.13L262.59,54.71L262.59,54.71z M254.77,50.66c-0.06-5.06,1.88-11.22,1.91-11.28
		c-0.16,0.01-0.34,0.02-0.49,0.03c-0.96,3.63-1.68,7.42-1.5,11.25H254.77L254.77,50.66z M254.22,47.94
		c0.44-4.31,1.32-7.16,1.74-8.52l-0.43,0.02c-0.38,1.38-1.13,4.54-1.39,8.49H254.22L254.22,47.94z M254.09,44.11h0.08
		c0.41-2.3,0.88-3.78,1.13-4.65c-0.13,0-0.25,0.01-0.38,0.02C254.68,40.33,254.38,41.68,254.09,44.11L254.09,44.11z M256.07,35.72
		l0.29-0.02l0.29-0.97h-0.08C256.36,35.08,256.21,35.39,256.07,35.72L256.07,35.72z M257.37,33.9c-0.34,0.61-0.61,1.24-0.82,1.78
		l0.37-0.03c0.14-0.49,0.27-1,0.53-1.75H257.37L257.37,33.9z M257.13,35.64l0.44-0.04l0.72-2.83h-0.08
		C257.8,33.7,257.43,34.78,257.13,35.64L257.13,35.64z M250.98,49.47c-0.47,1.06-1.26,2.9-1.92,3.99v0.08
		c0.79-1.11,1.39-2.22,1.8-3.07C250.87,50.18,250.93,49.87,250.98,49.47L250.98,49.47z M250.94,54.04c-0.03-0.2-0.07-0.49-0.08-0.7
		c-0.58,1.24-2.07,3.8-3.65,5.25v0.08C248.97,57.3,250.29,55.23,250.94,54.04L250.94,54.04z M247.93,56.97
		c1.21-1.23,2.02-2.5,2.91-3.97c-0.01-0.21-0.03-0.52-0.03-0.73c-0.64,1.21-1.81,3.31-2.88,4.62V56.97L247.93,56.97z M248.64,55.14
		c0.82-1,1.62-2.27,2.16-3.27c0,0,0-0.26,0.01-0.47c0.01-0.2,0.02-0.48,0.02-0.48c-0.54,1.2-1.2,2.61-2.19,4.14V55.14L248.64,55.14z
		 M239.07,57.96c-0.05-0.13-0.11-0.32-0.16-0.46c-0.89,1.33-2.49,3.28-5.38,3.18v0.08C236.77,60.86,238.34,59.13,239.07,57.96
		L239.07,57.96z M234.11,59.97c2.34-0.08,3.89-1.59,4.72-2.76c0,0-0.03-0.1-0.06-0.22c-0.03-0.12-0.06-0.28-0.06-0.28
		c-0.83,1.24-2.37,3.07-4.6,3.18V59.97L234.11,59.97z M235.29,58.87c1.45-0.35,2.6-1.39,3.38-2.42c0,0-0.02-0.09-0.04-0.27
		c-0.02-0.18-0.03-0.28-0.03-0.28c-0.72,1.14-1.84,2.46-3.31,2.89V58.87L235.29,58.87z M231.56,49.14c0.52-1.24,1.41-2.33,2.08-3.05
		l-0.54,0.07c-0.56,0.65-1.1,1.58-1.62,2.98H231.56L231.56,49.14z M230.13,50.54c0.65-1.95,1.93-3.43,2.75-4.35
		c0,0-0.15,0.01-0.24,0.02c-0.09,0.01-0.3,0.03-0.3,0.03c-0.76,0.89-1.63,2.25-2.28,4.3H230.13L230.13,50.54z M232.1,46.26
		l-0.32,0.02c0,0-0.19,0.01-0.26,0.01c-0.78,0.9-1.75,2.47-2.38,4.59h0.08C229.82,48.91,231.25,47.2,232.1,46.26L232.1,46.26z
		 M233.95,46.06c-0.37,0.42-0.67,0.96-1.05,1.79h0.08c0.44-0.82,0.98-1.37,1.46-1.87C234.29,46,234.17,46.02,233.95,46.06
		L233.95,46.06z M226.95,45.85c0,0-0.1-0.03-0.16-0.05c-0.06-0.02-0.18-0.06-0.18-0.06c-0.34,1.92-1.4,7.32-3.31,11.57h0.08
		C225.25,53.89,226.5,48.32,226.95,45.85L226.95,45.85z M223.43,55.17h0.08c1.44-2.89,2.42-6.87,2.93-9.5c0,0-0.11-0.04-0.18-0.07
		c-0.07-0.03-0.19-0.07-0.19-0.07C225.65,47.92,224.88,51.76,223.43,55.17L223.43,55.17z M224.06,51.56h0.08
		c0.64-1.69,1.32-4.02,1.77-6.09c0,0-0.08-0.04-0.15-0.07c-0.06-0.03-0.19-0.09-0.19-0.09C225.15,47.33,224.64,49.72,224.06,51.56
		L224.06,51.56z M224.59,47.65h0.08c0.34-0.84,0.45-1.37,0.75-2.43l-0.3-0.17C224.9,46.28,224.84,46.65,224.59,47.65L224.59,47.65z
		 M214.56,56.55c0,0-0.03-0.13-0.05-0.23c-0.02-0.11-0.06-0.27-0.06-0.27c-0.61,1-2.44,3.87-4.49,4.84v0.08
		C212.26,59.88,214.06,57.35,214.56,56.55L214.56,56.55z M210.85,59.57c1.47-1.07,2.87-2.79,3.55-3.8c0,0-0.02-0.12-0.03-0.22
		c-0.02-0.1-0.05-0.31-0.05-0.31c-0.72,1.17-2.17,3.22-3.47,4.25V59.57L210.85,59.57z M211.46,58.22c1.09-0.97,2.13-2.28,2.81-3.29
		c0,0-0.03-0.33-0.06-0.59c-0.63,1.06-1.49,2.49-2.75,3.8V58.22L211.46,58.22z M211.99,56.75c1.02-1.03,1.69-1.95,2.19-2.77
		l-0.04-0.71c-0.55,1.06-1.32,2.43-2.15,3.4V56.75L211.99,56.75z M296,40.38c0,0.56-0.51,1.07-0.79,1.13c-0.4,0-1.24,0.11-1.69,0.23
		c-4.85,1.13-8.81,5.36-10.61,10.79c-0.28,1.07-0.56,2.09-1.47,5.87c-0.17,0.73-1.02,1.31-1.98,1.19c-1.19-0.16-1.81-1.02-1.81-1.98
		c0-0.23,0.01-0.45,0.06-0.68l0.3-1.44c-2.27,2.36-5.01,4.28-8.31,4.54c-2.57,0.2-4.39-0.42-5.66-1.52
		c-2.09,1.19-4.35,2.09-6.25,2.09c-3.33,0-6.1-1.88-6.79-6.18c-1.75,3.53-4.63,6.35-7.61,6.35c-0.17,0-0.34,0-0.51-0.01
		c-1.99-0.15-3.09-1.2-3.68-2.5c-0.92,1.35-2.62,2.96-5.46,2.96c-2.77,0-5.76-1.36-5.76-6.6c0-2.75,1.47-6.22,3.32-8.3h-0.55
		c-1.16,0-2.4-0.07-3.59-0.4c-0.73,4.67-2.4,10.83-4.77,13.83c-0.96,1.19-2.03,1.64-3.22,1.64c-2.54,0-3.9-2.09-4.52-4.52
		c-1.81,2.71-3.9,4.86-6.32,4.86c-3.39,0-3.95-5.19-3.95-8.47c0-3.27,0.62-9.43,1.92-11.58c0.34-0.56,0.96-1.02,1.98-1.07
		c1.02-0.06,1.69,0.45,1.58,1.24c-0.45,3.1-0.96,6.27-0.96,8.87c0,2.94,0.17,4.97,0.68,6.1c1.52-1.81,3.1-4.91,4.8-10.79
		c0.34-1.19,0.96-1.75,2.09-1.75c0.96,0,1.52,0.51,1.52,1.92c0,1.3-0.06,2.6,0.06,4.75c0.11,2.2,0.51,4.8,1.13,5.76
		c1.36-0.85,3.22-8.02,4.12-12.93c0.28-1.58,0.9-2.37,2.26-2.37c0.68,0,1.3,0.28,2.03,0.56c1.02,0.4,2.26,0.73,3.44,0.73
		c1.3,0,2.94-0.17,4.57-0.68c1.47-0.45,2.77-0.85,3.56-0.85c0.96,0,1.92,0.34,1.92,1.41c0,0.96-0.51,1.92-1.47,2.15
		c-6.55,1.75-7.34,8.24-7.34,8.92c0,1.98,0.96,3.05,2.2,3.05c1.36,0,2.82-0.68,4.01-2.65c0.56-3.73,1.52-7.12,2.48-9.21
		c0.62-1.3,1.24-2.54,2.2-2.54c1.02,0,1.92,0.56,1.92,1.81c0,0.23-0.06,0.51-0.11,0.73c-0.22,1.24-1.97,6.21-1.97,9.6
		c0,0.96,0.23,1.86,0.68,2.2c2.94-0.68,4.91-5.64,6.49-9.54c0.72-1.78,1.4-3.85,2.44-7.55l-3.29,0.16
		c-2.15,0.11-3.67-0.17-3.67-1.75c0-0.85,0.73-1.41,1.52-1.52c1.83-0.2,3.67-0.3,6.46-0.52c0.28-0.85,0.47-1.35,0.71-2.02
		c1.19-3.22,1.81-4.23,3.22-4.23c0.96,0,1.52,0.45,1.52,1.47c0,0.4-0.17,1.02-0.62,2.65l-0.51,1.79l3.5-0.27
		c1.64-0.17,2.65-0.23,2.99-0.23c1.64,0,1.92,0.51,1.81,1.58c-0.06,0.56-0.23,1.13-0.73,1.52c-0.79,0.68-2.26,0.79-5.82,1.02
		c-0.78,0.06-1.79,0.11-2.79,0.17c-1.19,4.45-1.72,6.86-1.72,10.62c0,4.12,1.07,5.59,2.65,6.15h0.17c1.58,0,2.84-0.52,3.91-1.07
		c-0.52-1.71-0.64-3.63-0.52-5.36c0.23-4.12,3.16-10.28,8.81-10.28c2.82,0,5.02,1.58,5.02,4.85c0,2.03-0.96,4.29-2.32,6.27
		c-1.19,1.72-2.7,3.34-4.33,4.74c0.47,0.16,0.97,0.23,1.57,0.23c4.6,0,8.35-4.64,10.63-11.11c0.34-1.3,0.66-2.54,0.95-3.68
		c0.17-0.96,0.62-1.86,1.81-1.86c1.13,0,2.09,0.51,2.09,2.15c0,0.71-0.14,1.55-0.31,2.34l0.03,0.03c1.58-2.37,4.86-5.36,7.96-5.36
		C294.65,38.01,296,38.86,296,40.38L296,40.38z M127.07,43.21c1.3,0,2.31-1.13,2.31-2.32c0-1.24-0.79-1.86-1.92-1.86
		c-1.19,0-2.31,1.13-2.31,2.31C125.15,42.47,125.88,43.21,127.07,43.21L127.07,43.21z M155.35,38.52c0-1.19,1.02-2.37,2.2-2.37
		c1.13,0,1.98,0.56,1.98,1.81c0,1.19-1.02,2.48-2.31,2.48C156.03,40.44,155.35,39.65,155.35,38.52L155.35,38.52z"/>
</g>
</svg>
